<svg width="224" height="27" viewBox="0 0 224 27" fill="none" xmlns="http://www.w3.org/2000/svg">
<path d="M18.952 22.58L18.16 22.832V2.6H21.04V26H18.16L2.968 6.056L3.76 5.804V26H0.88V2.6H3.76L18.952 22.58ZM29.8142 0.799998V4.292H26.0702V0.799998H29.8142ZM26.5022 8H29.3822V26H26.5022V8ZM34.3009 8H37.1809V26H34.3009V8ZM43.3729 7.64C44.3329 7.64 45.1969 7.784 45.9649 8.072C46.7329 8.36 47.3809 8.78 47.9089 9.332C48.4369 9.884 48.8449 10.556 49.1329 11.348C49.4209 12.116 49.5649 12.992 49.5649 13.976V26H46.6849V14.696C46.6849 13.304 46.3609 12.26 45.7129 11.564C45.0649 10.868 44.0929 10.52 42.7969 10.52C41.8129 10.52 40.9009 10.772 40.0609 11.276C39.2209 11.78 38.5249 12.476 37.9729 13.364C37.4449 14.228 37.1209 15.236 37.0009 16.388L36.9649 14.3C37.0849 13.292 37.3249 12.38 37.6849 11.564C38.0689 10.748 38.5369 10.052 39.0889 9.476C39.6649 8.876 40.3129 8.42 41.0329 8.108C41.7769 7.796 42.5569 7.64 43.3729 7.64ZM61.0385 26.36C59.6225 26.36 58.3145 25.964 57.1145 25.172C55.9385 24.356 54.9905 23.252 54.2705 21.86C53.5745 20.444 53.2265 18.836 53.2265 17.036C53.2265 15.236 53.5865 13.628 54.3065 12.212C55.0265 10.796 55.9985 9.68 57.2225 8.864C58.4705 8.048 59.8625 7.64 61.3985 7.64C63.0785 7.64 64.3505 8.072 65.2145 8.936C66.1025 9.776 66.7025 10.904 67.0145 12.32C67.3505 13.736 67.5185 15.308 67.5185 17.036C67.5185 17.948 67.4225 18.944 67.2305 20.024C67.0385 21.08 66.7025 22.1 66.2225 23.084C65.7665 24.044 65.1185 24.836 64.2785 25.46C63.4385 26.06 62.3585 26.36 61.0385 26.36ZM61.7585 23.624C62.9825 23.624 63.9905 23.324 64.7825 22.724C65.5985 22.124 66.1985 21.332 66.5825 20.348C66.9665 19.34 67.1585 18.236 67.1585 17.036C67.1585 15.716 66.9545 14.564 66.5465 13.58C66.1625 12.572 65.5625 11.792 64.7465 11.24C63.9545 10.664 62.9585 10.376 61.7585 10.376C59.9585 10.376 58.5665 11.012 57.5825 12.284C56.5985 13.532 56.1065 15.116 56.1065 17.036C56.1065 18.308 56.3465 19.448 56.8265 20.456C57.3305 21.44 58.0025 22.22 58.8425 22.796C59.7065 23.348 60.6785 23.624 61.7585 23.624ZM67.1585 8H70.0385V26H67.4105C67.4105 26 67.3865 25.784 67.3385 25.352C67.3145 24.92 67.2785 24.416 67.2305 23.84C67.1825 23.264 67.1585 22.784 67.1585 22.4V8ZM102.953 18.188C102.713 19.868 102.137 21.32 101.225 22.544C100.313 23.768 99.1492 24.716 97.7332 25.388C96.3412 26.036 94.7812 26.36 93.0532 26.36C91.4452 26.36 89.9572 26.084 88.5892 25.532C87.2212 24.956 86.0212 24.14 84.9892 23.084C83.9812 22.028 83.1892 20.756 82.6132 19.268C82.0372 17.78 81.7492 16.124 81.7492 14.3C81.7492 12.452 82.0372 10.796 82.6132 9.332C83.1892 7.844 83.9812 6.572 84.9892 5.516C86.0212 4.46 87.2212 3.656 88.5892 3.104C89.9572 2.528 91.4452 2.24 93.0532 2.24C94.8052 2.24 96.3772 2.576 97.7692 3.248C99.1852 3.896 100.349 4.844 101.261 6.092C102.173 7.316 102.749 8.78 102.989 10.484H100.325C99.9892 9.284 99.4612 8.276 98.7412 7.46C98.0452 6.644 97.2052 6.02 96.2212 5.588C95.2372 5.156 94.1812 4.94 93.0532 4.94C91.5892 4.94 90.2092 5.3 88.9132 6.02C87.6412 6.74 86.6092 7.796 85.8172 9.188C85.0252 10.58 84.6292 12.284 84.6292 14.3C84.6292 16.316 85.0252 18.02 85.8172 19.412C86.6092 20.804 87.6412 21.86 88.9132 22.58C90.2092 23.3 91.5892 23.66 93.0532 23.66C94.1812 23.66 95.2252 23.456 96.1852 23.048C97.1692 22.616 98.0092 21.992 98.7052 21.176C99.4252 20.36 99.9532 19.364 100.289 18.188H102.953ZM113.949 26.36C112.533 26.36 111.225 25.964 110.025 25.172C108.849 24.356 107.901 23.252 107.181 21.86C106.485 20.444 106.137 18.836 106.137 17.036C106.137 15.236 106.497 13.628 107.217 12.212C107.937 10.796 108.909 9.68 110.133 8.864C111.381 8.048 112.773 7.64 114.309 7.64C115.989 7.64 117.261 8.072 118.125 8.936C119.013 9.776 119.613 10.904 119.925 12.32C120.261 13.736 120.429 15.308 120.429 17.036C120.429 17.948 120.333 18.944 120.141 20.024C119.949 21.08 119.613 22.1 119.133 23.084C118.677 24.044 118.029 24.836 117.189 25.46C116.349 26.06 115.269 26.36 113.949 26.36ZM114.669 23.624C115.893 23.624 116.901 23.324 117.693 22.724C118.509 22.124 119.109 21.332 119.493 20.348C119.877 19.34 120.069 18.236 120.069 17.036C120.069 15.716 119.865 14.564 119.457 13.58C119.073 12.572 118.473 11.792 117.657 11.24C116.865 10.664 115.869 10.376 114.669 10.376C112.869 10.376 111.477 11.012 110.493 12.284C109.509 13.532 109.017 15.116 109.017 17.036C109.017 18.308 109.257 19.448 109.737 20.456C110.241 21.44 110.913 22.22 111.753 22.796C112.617 23.348 113.589 23.624 114.669 23.624ZM120.069 8H122.949V26H120.321C120.321 26 120.297 25.784 120.249 25.352C120.225 24.92 120.189 24.416 120.141 23.84C120.093 23.264 120.069 22.784 120.069 22.4V8ZM127.641 8H130.521V26H127.641V8ZM136.281 10.7C135.057 10.7 134.025 11.012 133.185 11.636C132.369 12.236 131.721 12.98 131.241 13.868C130.785 14.732 130.485 15.572 130.341 16.388L130.305 14.3C130.305 14.084 130.353 13.724 130.449 13.22C130.545 12.716 130.725 12.152 130.989 11.528C131.253 10.88 131.601 10.268 132.033 9.692C132.489 9.092 133.065 8.6 133.761 8.216C134.457 7.832 135.297 7.64 136.281 7.64V10.7ZM146.328 26.36C144.888 26.36 143.568 25.964 142.368 25.172C141.192 24.356 140.256 23.252 139.56 21.86C138.864 20.444 138.516 18.836 138.516 17.036C138.516 15.236 138.852 13.628 139.524 12.212C140.196 10.796 141.12 9.68 142.296 8.864C143.472 8.048 144.816 7.64 146.328 7.64C147.672 7.64 148.764 7.892 149.604 8.396C150.468 8.876 151.128 9.548 151.584 10.412C152.04 11.276 152.352 12.272 152.52 13.4C152.712 14.528 152.808 15.74 152.808 17.036C152.808 17.948 152.712 18.944 152.52 20.024C152.328 21.08 151.992 22.1 151.512 23.084C151.056 24.044 150.408 24.836 149.568 25.46C148.728 26.06 147.648 26.36 146.328 26.36ZM147.048 23.624C148.272 23.624 149.28 23.324 150.072 22.724C150.888 22.124 151.488 21.332 151.872 20.348C152.256 19.34 152.448 18.236 152.448 17.036C152.448 15.716 152.244 14.564 151.836 13.58C151.452 12.572 150.852 11.792 150.036 11.24C149.244 10.664 148.248 10.376 147.048 10.376C145.248 10.376 143.856 11.012 142.872 12.284C141.888 13.532 141.396 15.116 141.396 17.036C141.396 18.308 141.636 19.448 142.116 20.456C142.62 21.44 143.292 22.22 144.132 22.796C144.996 23.348 145.968 23.624 147.048 23.624ZM152.448 0.799998H155.328V26H152.7C152.652 25.472 152.592 24.848 152.52 24.128C152.472 23.408 152.448 22.832 152.448 22.4V0.799998ZM175.811 26H172.931V8H175.811V26ZM173.111 17.612L173.147 18.62C173.123 18.908 173.051 19.352 172.931 19.952C172.835 20.552 172.655 21.224 172.391 21.968C172.151 22.688 171.791 23.384 171.311 24.056C170.855 24.728 170.255 25.28 169.511 25.712C168.791 26.144 167.891 26.36 166.811 26.36C166.115 26.36 165.395 26.252 164.651 26.036C163.931 25.844 163.259 25.52 162.635 25.064C162.011 24.584 161.507 23.924 161.123 23.084C160.739 22.244 160.547 21.2 160.547 19.952V8H163.427V19.232C163.427 20.312 163.595 21.164 163.931 21.788C164.291 22.388 164.771 22.82 165.371 23.084C165.971 23.348 166.643 23.48 167.387 23.48C168.611 23.48 169.631 23.168 170.447 22.544C171.263 21.92 171.887 21.152 172.319 20.24C172.751 19.328 173.015 18.452 173.111 17.612ZM196.465 19.232C196.297 20.72 195.817 22.004 195.025 23.084C194.257 24.14 193.285 24.956 192.109 25.532C190.933 26.084 189.661 26.36 188.293 26.36C186.757 26.36 185.317 25.988 183.973 25.244C182.629 24.5 181.537 23.432 180.697 22.04C179.881 20.624 179.473 18.956 179.473 17.036C179.473 15.116 179.881 13.46 180.697 12.068C181.537 10.652 182.629 9.56 183.973 8.792C185.317 8.024 186.757 7.64 188.293 7.64C189.661 7.64 190.921 7.928 192.073 8.504C193.249 9.08 194.221 9.896 194.989 10.952C195.781 12.008 196.273 13.268 196.465 14.732H193.837C193.429 13.364 192.721 12.296 191.713 11.528C190.705 10.736 189.565 10.34 188.293 10.34C187.261 10.34 186.289 10.604 185.377 11.132C184.465 11.66 183.733 12.428 183.181 13.436C182.629 14.42 182.353 15.62 182.353 17.036C182.353 18.428 182.629 19.628 183.181 20.636C183.733 21.62 184.453 22.376 185.341 22.904C186.253 23.408 187.237 23.66 188.293 23.66C189.757 23.66 190.945 23.276 191.857 22.508C192.793 21.716 193.465 20.624 193.873 19.232H196.465ZM216.117 19.232C215.949 20.72 215.469 22.004 214.677 23.084C213.909 24.14 212.937 24.956 211.761 25.532C210.585 26.084 209.313 26.36 207.945 26.36C206.409 26.36 204.969 25.988 203.625 25.244C202.281 24.5 201.189 23.432 200.349 22.04C199.533 20.624 199.125 18.956 199.125 17.036C199.125 15.116 199.533 13.46 200.349 12.068C201.189 10.652 202.281 9.56 203.625 8.792C204.969 8.024 206.409 7.64 207.945 7.64C209.313 7.64 210.573 7.928 211.725 8.504C212.901 9.08 213.873 9.896 214.641 10.952C215.433 12.008 215.925 13.268 216.117 14.732H213.489C213.081 13.364 212.373 12.296 211.365 11.528C210.357 10.736 209.217 10.34 207.945 10.34C206.913 10.34 205.941 10.604 205.029 11.132C204.117 11.66 203.385 12.428 202.833 13.436C202.281 14.42 202.005 15.62 202.005 17.036C202.005 18.428 202.281 19.628 202.833 20.636C203.385 21.62 204.105 22.376 204.993 22.904C205.905 23.408 206.889 23.66 207.945 23.66C209.409 23.66 210.597 23.276 211.509 22.508C212.445 21.716 213.117 20.624 213.525 19.232H216.117ZM223.349 0.799998V4.292H219.605V0.799998H223.349ZM220.037 8H222.917V26H220.037V8Z" fill="black"/>
</svg>
