<svg width="385" height="60" viewBox="0 0 385 60" fill="none" xmlns="http://www.w3.org/2000/svg">
<path d="M1.4 20.6H12.32C12.5067 21.16 13.0533 21.64 13.96 22.04C14.8667 22.4133 16.08 22.7067 17.6 22.92C19.1467 23.1067 20.9333 23.2 22.96 23.2C24.96 23.2 26.5333 23.1467 27.68 23.04C28.8533 22.9067 29.68 22.6933 30.16 22.4C30.64 22.08 30.88 21.6533 30.88 21.12C30.88 20.6133 30.4933 20.2267 29.72 19.96C28.9467 19.6667 27.5733 19.4667 25.6 19.36C23.6267 19.2533 20.8533 19.2 17.28 19.2C14.6133 19.2 12.3067 19.08 10.36 18.84C8.44 18.5733 6.85333 18.1733 5.6 17.64C4.37333 17.08 3.46667 16.3867 2.88 15.56C2.29333 14.7067 2 13.6933 2 12.52C2 10.4933 2.68 8.82667 4.04 7.52C5.42667 6.18666 7.50667 5.2 10.28 4.56C13.08 3.89333 16.5733 3.56 20.76 3.56C26.8933 3.56 31.5733 4.45333 34.8 6.24C38.0533 8 39.68 10.5467 39.68 13.88H29.32C29.1867 13 28.36 12.3333 26.84 11.88C25.32 11.4 23.16 11.16 20.36 11.16C17.5867 11.16 15.52 11.32 14.16 11.64C12.8267 11.96 12.16 12.5067 12.16 13.28C12.16 13.68 12.3467 14 12.72 14.24C13.0933 14.48 13.7333 14.68 14.64 14.84C15.5733 14.9733 16.88 15.0667 18.56 15.12C20.24 15.1733 22.3733 15.2 24.96 15.2C27.8133 15.2 30.24 15.3467 32.24 15.64C34.24 15.9067 35.8533 16.32 37.08 16.88C38.3333 17.44 39.24 18.16 39.8 19.04C40.36 19.8933 40.64 20.9067 40.64 22.08C40.64 24.1067 40 25.76 38.72 27.04C37.44 28.32 35.4133 29.2667 32.64 29.88C29.8667 30.4933 26.24 30.8 21.76 30.8C19.2267 30.8 16.8933 30.6533 14.76 30.36C12.6533 30.0667 10.7733 29.64 9.12 29.08C7.46667 28.4933 6.06667 27.7867 4.92 26.96C3.77333 26.1067 2.89333 25.16 2.28 24.12C1.69333 23.0533 1.4 21.88 1.4 20.6ZM62.6266 30.6C58.3866 30.6 54.8532 30.2533 52.0266 29.56C49.2266 28.8667 47.1199 27.76 45.7066 26.24C44.3199 24.72 43.6266 22.72 43.6266 20.24C43.6266 17.76 44.3199 15.76 45.7066 14.24C47.1199 12.6933 49.2266 11.5733 52.0266 10.88C54.8532 10.16 58.3866 9.8 62.6266 9.8C66.8399 9.8 70.3332 10.16 73.1066 10.88C75.9066 11.5733 77.9999 12.6933 79.3866 14.24C80.7732 15.76 81.4666 17.76 81.4666 20.24C81.4666 22.72 80.7732 24.72 79.3866 26.24C77.9999 27.76 75.9066 28.8667 73.1066 29.56C70.3332 30.2533 66.8399 30.6 62.6266 30.6ZM62.6266 24.8C64.5999 24.8 66.2532 24.64 67.5866 24.32C68.9199 23.9733 69.9332 23.4667 70.6266 22.8C71.3199 22.1067 71.6666 21.2533 71.6666 20.24C71.6666 19.2267 71.3199 18.3733 70.6266 17.68C69.9599 16.9867 68.9599 16.4667 67.6266 16.12C66.2932 15.7733 64.6266 15.6 62.6266 15.6C60.6532 15.6 58.9732 15.7733 57.5866 16.12C56.2266 16.4667 55.1866 16.9867 54.4666 17.68C53.7732 18.3467 53.4266 19.2 53.4266 20.24C53.4266 21.2533 53.7732 22.1067 54.4666 22.8C55.1599 23.4667 56.1866 23.9733 57.5466 24.32C58.9332 24.64 60.6266 24.8 62.6266 24.8ZM109.052 30.6C106.652 30.6 104.492 30.36 102.572 29.88C100.652 29.3733 99.0116 28.6667 97.6516 27.76C96.2916 26.8267 95.2516 25.72 94.5316 24.44C93.8116 23.16 93.4516 21.7467 93.4516 20.2C93.4516 18.6533 93.8116 17.2533 94.5316 16C95.2516 14.72 96.2916 13.6267 97.6516 12.72C99.0116 11.7867 100.652 11.08 102.572 10.6C104.492 10.0933 106.652 9.84 109.052 9.84C111.932 9.84 114.492 10.2533 116.732 11.08C118.998 11.88 120.772 13.0533 122.052 14.6C123.332 16.1467 123.972 18.0133 123.972 20.2C123.972 22.4933 123.332 24.4133 122.052 25.96C120.772 27.5067 118.998 28.6667 116.732 29.44C114.492 30.2133 111.932 30.6 109.052 30.6ZM105.452 24.48C107.265 24.48 108.812 24.32 110.092 24C111.372 23.68 112.345 23.2133 113.012 22.6C113.678 21.96 114.012 21.16 114.012 20.2C114.012 18.7867 113.265 17.72 111.772 17C110.278 16.28 108.172 15.92 105.452 15.92C103.425 15.92 101.558 16.04 99.8516 16.28C98.1716 16.52 96.8116 16.96 95.7716 17.6C94.7582 18.2133 94.2516 19.08 94.2516 20.2C94.2516 21.32 94.7582 22.2 95.7716 22.84C96.8116 23.4533 98.1716 23.88 99.8516 24.12C101.558 24.36 103.425 24.48 105.452 24.48ZM84.6516 10.4H93.6916L94.2516 18V38H84.6516V10.4ZM154.311 30V22.72C154.311 21.52 154.071 20.5067 153.591 19.68C153.111 18.8533 152.257 18.24 151.031 17.84C149.831 17.4133 148.124 17.2 145.911 17.2C144.657 17.2 143.431 17.32 142.231 17.56C141.057 17.7733 139.991 18.04 139.031 18.36C138.097 18.68 137.351 19 136.791 19.32L136.711 17.4C136.817 17 137.177 16.4 137.791 15.6C138.431 14.7733 139.351 13.92 140.551 13.04C141.751 12.1333 143.257 11.3733 145.071 10.76C146.911 10.12 149.084 9.8 151.591 9.8C153.164 9.8 154.684 9.94667 156.151 10.24C157.617 10.5333 158.924 11.0267 160.071 11.72C161.244 12.3867 162.177 13.2933 162.871 14.44C163.564 15.5867 163.911 17.0133 163.911 18.72V30H154.311ZM127.591 30V2.4H137.191V30H127.591ZM178.063 0.119998V6.12H167.903V0.119998H178.063ZM168.183 10.4H177.783V30H168.183V10.4ZM209.113 22.96H218.553C218.313 24.5067 217.54 25.8533 216.233 27C214.953 28.1467 213.073 29.04 210.593 29.68C208.14 30.2933 205.007 30.6 201.193 30.6C197.167 30.6 193.687 30.28 190.753 29.64C187.847 29 185.607 27.92 184.033 26.4C182.46 24.88 181.673 22.8267 181.673 20.24C181.673 17.68 182.433 15.64 183.953 14.12C185.5 12.5733 187.727 11.4667 190.633 10.8C193.54 10.1333 197.06 9.8 201.193 9.8C205.247 9.8 208.567 10.16 211.153 10.88C213.74 11.6 215.647 12.7733 216.873 14.4C218.1 16 218.687 18.1733 218.633 20.92H191.433C191.567 21.6133 191.94 22.2533 192.553 22.84C193.193 23.4267 194.167 23.9067 195.473 24.28C196.807 24.6267 198.58 24.8 200.793 24.8C203.087 24.8 204.967 24.64 206.433 24.32C207.927 24 208.82 23.5467 209.113 22.96ZM200.793 15.6C197.967 15.6 195.807 15.9067 194.313 16.52C192.847 17.1333 191.98 17.7467 191.713 18.36H209.313C209.127 17.6667 208.38 17.04 207.073 16.48C205.767 15.8933 203.673 15.6 200.793 15.6ZM235.222 30V4.4H260.422C265.595 4.4 269.409 4.90666 271.862 5.92C274.315 6.93333 275.542 8.69333 275.542 11.2C275.542 12.8 275.009 14.0267 273.942 14.88C272.902 15.7333 271.395 16.3333 269.422 16.68C267.475 17 265.129 17.2 262.382 17.28L262.702 16.96C264.702 16.96 266.555 17.0133 268.262 17.12C269.969 17.2267 271.462 17.4667 272.742 17.84C274.022 18.2133 275.022 18.7867 275.742 19.56C276.462 20.3333 276.822 21.4 276.822 22.76C276.822 24.4133 276.235 25.7733 275.062 26.84C273.889 27.9067 272.222 28.7067 270.062 29.24C267.902 29.7467 265.355 30 262.422 30H235.222ZM245.222 22.48H262.422C263.835 22.48 264.849 22.3467 265.462 22.08C266.102 21.8133 266.422 21.3867 266.422 20.8C266.422 20.4 266.275 20.08 265.982 19.84C265.715 19.6 265.289 19.4267 264.702 19.32C264.115 19.1867 263.355 19.12 262.422 19.12H245.222V22.48ZM245.222 15.28H260.742C262.155 15.28 263.169 15.1467 263.782 14.88C264.422 14.6133 264.742 14.1867 264.742 13.6C264.742 12.9867 264.422 12.56 263.782 12.32C263.169 12.0533 262.155 11.92 260.742 11.92H245.222V15.28ZM280.408 2.4H290.008V30H280.408V2.4ZM330.542 30H320.942V10.4H330.542V30ZM321.342 19.88L321.422 21.8C321.342 22.36 321.075 23.0133 320.622 23.76C320.195 24.5067 319.595 25.28 318.822 26.08C318.049 26.88 317.102 27.6267 315.982 28.32C314.862 28.9867 313.582 29.5333 312.142 29.96C310.702 30.3867 309.102 30.6 307.342 30.6C305.582 30.6 303.915 30.4133 302.342 30.04C300.769 29.6933 299.369 29.1067 298.142 28.28C296.915 27.4533 295.955 26.3467 295.262 24.96C294.569 23.5467 294.222 21.7867 294.222 19.68V10.4H303.822V18.68C303.822 20.1467 304.062 21.28 304.542 22.08C305.049 22.88 305.835 23.44 306.902 23.76C307.969 24.0533 309.342 24.2 311.022 24.2C312.595 24.2 314.049 23.9733 315.382 23.52C316.742 23.04 317.929 22.4667 318.942 21.8C319.982 21.1333 320.782 20.4933 321.342 19.88ZM361.184 22.96H370.624C370.384 24.5067 369.61 25.8533 368.304 27C367.024 28.1467 365.144 29.04 362.664 29.68C360.21 30.2933 357.077 30.6 353.264 30.6C349.237 30.6 345.757 30.28 342.824 29.64C339.917 29 337.677 27.92 336.104 26.4C334.53 24.88 333.744 22.8267 333.744 20.24C333.744 17.68 334.504 15.64 336.024 14.12C337.57 12.5733 339.797 11.4667 342.704 10.8C345.61 10.1333 349.13 9.8 353.264 9.8C357.317 9.8 360.637 10.16 363.224 10.88C365.81 11.6 367.717 12.7733 368.944 14.4C370.17 16 370.757 18.1733 370.704 20.92H343.504C343.637 21.6133 344.01 22.2533 344.624 22.84C345.264 23.4267 346.237 23.9067 347.544 24.28C348.877 24.6267 350.65 24.8 352.864 24.8C355.157 24.8 357.037 24.64 358.504 24.32C359.997 24 360.89 23.5467 361.184 22.96ZM352.864 15.6C350.037 15.6 347.877 15.9067 346.384 16.52C344.917 17.1333 344.05 17.7467 343.784 18.36H361.384C361.197 17.6667 360.45 17.04 359.144 16.48C357.837 15.8933 355.744 15.6 352.864 15.6ZM374.509 2.4H384.109V30H374.509V2.4ZM3.84 55.136V53.072H12.192V55.136H3.84ZM0.456 59L6.816 43.424H9.264L15.672 59H13.176L7.608 44.936H8.472L2.928 59H0.456ZM17.637 47.024H19.941V59H17.637V47.024ZM23.997 49.064C23.165 49.064 22.453 49.256 21.861 49.64C21.285 50.024 20.821 50.496 20.469 51.056C20.133 51.616 19.909 52.152 19.797 52.664L19.773 51.296C19.789 51.136 19.829 50.888 19.893 50.552C19.973 50.2 20.109 49.808 20.301 49.376C20.493 48.944 20.749 48.536 21.069 48.152C21.389 47.752 21.789 47.424 22.269 47.168C22.749 46.912 23.325 46.784 23.997 46.784V49.064ZM37.8105 54.44C37.7145 55.432 37.3945 56.296 36.8505 57.032C36.3225 57.752 35.6265 58.304 34.7625 58.688C33.8985 59.072 32.9385 59.264 31.8825 59.264C30.7145 59.264 29.6425 59.024 28.6665 58.544C27.6905 58.048 26.9065 57.336 26.3145 56.408C25.7385 55.464 25.4505 54.344 25.4505 53.048C25.4505 51.736 25.7385 50.616 26.3145 49.688C26.9065 48.744 27.6905 48.024 28.6665 47.528C29.6425 47.032 30.7145 46.784 31.8825 46.784C32.9385 46.784 33.8905 46.976 34.7385 47.36C35.5865 47.744 36.2825 48.296 36.8265 49.016C37.3705 49.72 37.6985 50.568 37.8105 51.56H35.7225C35.4505 50.696 34.9625 50.016 34.2585 49.52C33.5705 49.008 32.7785 48.752 31.8825 48.752C31.1465 48.752 30.4585 48.92 29.8185 49.256C29.1945 49.592 28.6905 50.08 28.3065 50.72C27.9385 51.344 27.7545 52.12 27.7545 53.048C27.7545 53.944 27.9385 54.712 28.3065 55.352C28.6905 55.976 29.1945 56.456 29.8185 56.792C30.4425 57.112 31.1305 57.272 31.8825 57.272C32.9065 57.272 33.7385 57.024 34.3785 56.528C35.0185 56.032 35.4745 55.336 35.7465 54.44H37.8105ZM49.4953 59V51.776C49.4953 51.136 49.3913 50.608 49.1833 50.192C48.9753 49.776 48.6633 49.464 48.2473 49.256C47.8313 49.032 47.3033 48.92 46.6633 48.92C45.9593 48.92 45.3113 49.088 44.7193 49.424C44.1433 49.744 43.6713 50.184 43.3033 50.744C42.9353 51.288 42.7113 51.904 42.6313 52.592L42.6073 51.224C42.6873 50.6 42.8553 50.016 43.1113 49.472C43.3833 48.928 43.7193 48.456 44.1193 48.056C44.5353 47.656 45.0153 47.344 45.5593 47.12C46.1033 46.896 46.6953 46.784 47.3353 46.784C48.0073 46.784 48.6153 46.88 49.1593 47.072C49.7033 47.248 50.1673 47.528 50.5513 47.912C50.9513 48.28 51.2553 48.736 51.4633 49.28C51.6713 49.808 51.7753 50.416 51.7753 51.104V59H49.4953ZM40.4953 59V42.224H42.7753V59H40.4953ZM57.5689 42.08V44.552H54.7129V42.08H57.5689ZM55.0009 47.024H57.2809V59H55.0009V47.024ZM59.6876 47.024H67.4396V49.016H59.6876V47.024ZM62.4236 43.856H64.7036V59H62.4236V43.856ZM78.6504 55.112H80.8344C80.7064 55.896 80.4024 56.6 79.9224 57.224C79.4424 57.848 78.8104 58.344 78.0264 58.712C77.2424 59.08 76.3224 59.264 75.2664 59.264C74.0184 59.264 72.9064 59 71.9304 58.472C70.9544 57.944 70.1864 57.216 69.6264 56.288C69.0664 55.36 68.7864 54.28 68.7864 53.048C68.7864 51.8 69.0584 50.712 69.6024 49.784C70.1464 48.84 70.8984 48.104 71.8584 47.576C72.8184 47.048 73.9144 46.784 75.1464 46.784C76.4424 46.784 77.5304 47.04 78.4104 47.552C79.2904 48.064 79.9384 48.824 80.3544 49.832C80.7864 50.824 80.9624 52.064 80.8824 53.552H71.0664C71.1464 54.272 71.3624 54.912 71.7144 55.472C72.0824 56.032 72.5624 56.472 73.1544 56.792C73.7624 57.112 74.4584 57.272 75.2424 57.272C76.1224 57.272 76.8584 57.072 77.4504 56.672C78.0424 56.272 78.4424 55.752 78.6504 55.112ZM75.1704 48.752C74.1304 48.752 73.2664 49.032 72.5784 49.592C71.8904 50.136 71.4344 50.864 71.2104 51.776H78.5784C78.5144 50.8 78.1624 50.056 77.5224 49.544C76.8824 49.016 76.0984 48.752 75.1704 48.752ZM95.0449 54.44C94.9489 55.432 94.6289 56.296 94.0849 57.032C93.5569 57.752 92.8609 58.304 91.9969 58.688C91.1329 59.072 90.1729 59.264 89.1169 59.264C87.9489 59.264 86.8769 59.024 85.9009 58.544C84.9249 58.048 84.1409 57.336 83.5489 56.408C82.9729 55.464 82.6849 54.344 82.6849 53.048C82.6849 51.736 82.9729 50.616 83.5489 49.688C84.1409 48.744 84.9249 48.024 85.9009 47.528C86.8769 47.032 87.9489 46.784 89.1169 46.784C90.1729 46.784 91.1249 46.976 91.9729 47.36C92.8209 47.744 93.5169 48.296 94.0609 49.016C94.6049 49.72 94.9329 50.568 95.0449 51.56H92.9569C92.6849 50.696 92.1969 50.016 91.4929 49.52C90.8049 49.008 90.0129 48.752 89.1169 48.752C88.3809 48.752 87.6929 48.92 87.0529 49.256C86.4289 49.592 85.9249 50.08 85.5409 50.72C85.1729 51.344 84.9889 52.12 84.9889 53.048C84.9889 53.944 85.1729 54.712 85.5409 55.352C85.9249 55.976 86.4289 56.456 87.0529 56.792C87.6769 57.112 88.3649 57.272 89.1169 57.272C90.1409 57.272 90.9729 57.024 91.6129 56.528C92.2529 56.032 92.7089 55.336 92.9809 54.44H95.0449ZM96.6017 47.024H104.354V49.016H96.6017V47.024ZM99.3377 43.856H101.618V59H99.3377V43.856ZM116.753 59.24C115.713 59.24 114.769 58.976 113.921 58.448C113.073 57.92 112.401 57.192 111.905 56.264C111.425 55.32 111.185 54.24 111.185 53.024C111.185 51.808 111.425 50.736 111.905 49.808C112.385 48.864 113.041 48.128 113.873 47.6C114.705 47.056 115.665 46.784 116.753 46.784C117.697 46.784 118.481 46.944 119.105 47.264C119.729 47.584 120.217 48.032 120.569 48.608C120.921 49.184 121.169 49.848 121.313 50.6C121.473 51.352 121.553 52.16 121.553 53.024C121.553 53.664 121.473 54.344 121.313 55.064C121.153 55.784 120.897 56.464 120.545 57.104C120.193 57.744 119.705 58.264 119.081 58.664C118.457 59.048 117.681 59.24 116.753 59.24ZM117.401 57.248C118.249 57.248 118.961 57.064 119.537 56.696C120.129 56.312 120.569 55.8 120.857 55.16C121.145 54.52 121.289 53.808 121.289 53.024C121.289 52.176 121.137 51.432 120.833 50.792C120.545 50.152 120.105 49.656 119.513 49.304C118.937 48.952 118.233 48.776 117.401 48.776C116.153 48.776 115.185 49.176 114.497 49.976C113.825 50.776 113.489 51.792 113.489 53.024C113.489 53.856 113.657 54.592 113.993 55.232C114.329 55.856 114.785 56.352 115.361 56.72C115.953 57.072 116.633 57.248 117.401 57.248ZM121.289 42.224H123.593V59H121.481C121.433 58.648 121.385 58.216 121.337 57.704C121.305 57.192 121.289 56.752 121.289 56.384V42.224ZM127.236 49.304L126.756 48.68C126.996 48.264 127.22 47.84 127.428 47.408C127.636 46.96 127.748 46.52 127.764 46.088L126.54 45.824V43.376H129.468V45.152C129.468 46.176 129.244 47.008 128.796 47.648C128.364 48.288 127.844 48.84 127.236 49.304ZM134.772 42.08V44.552H131.916V42.08H134.772ZM132.204 47.024H134.484V59H132.204V47.024ZM137.731 47.024H140.035V59H137.731V47.024ZM144.595 46.784C145.267 46.784 145.875 46.88 146.419 47.072C146.963 47.264 147.427 47.552 147.811 47.936C148.195 48.304 148.491 48.768 148.699 49.328C148.923 49.872 149.035 50.496 149.035 51.2V59H146.755V51.704C146.755 50.76 146.523 50.056 146.059 49.592C145.611 49.112 144.923 48.872 143.995 48.872C143.275 48.872 142.619 49.04 142.027 49.376C141.435 49.712 140.947 50.16 140.563 50.72C140.195 51.264 139.971 51.88 139.891 52.568L139.867 51.248C139.947 50.608 140.115 50.016 140.371 49.472C140.643 48.928 140.979 48.456 141.379 48.056C141.795 47.64 142.275 47.328 142.819 47.12C143.363 46.896 143.955 46.784 144.595 46.784ZM151.211 47.024H158.963V49.016H151.211V47.024ZM153.947 43.856H156.227V59H153.947V43.856ZM170.174 55.112H172.358C172.23 55.896 171.926 56.6 171.446 57.224C170.966 57.848 170.334 58.344 169.55 58.712C168.766 59.08 167.846 59.264 166.79 59.264C165.542 59.264 164.43 59 163.454 58.472C162.478 57.944 161.71 57.216 161.15 56.288C160.59 55.36 160.31 54.28 160.31 53.048C160.31 51.8 160.582 50.712 161.126 49.784C161.67 48.84 162.422 48.104 163.382 47.576C164.342 47.048 165.438 46.784 166.67 46.784C167.966 46.784 169.054 47.04 169.934 47.552C170.814 48.064 171.462 48.824 171.878 49.832C172.31 50.824 172.486 52.064 172.406 53.552H162.59C162.67 54.272 162.886 54.912 163.238 55.472C163.606 56.032 164.086 56.472 164.678 56.792C165.286 57.112 165.982 57.272 166.766 57.272C167.646 57.272 168.382 57.072 168.974 56.672C169.566 56.272 169.966 55.752 170.174 55.112ZM166.694 48.752C165.654 48.752 164.79 49.032 164.102 49.592C163.414 50.136 162.958 50.864 162.734 51.776H170.102C170.038 50.8 169.686 50.056 169.046 49.544C168.406 49.016 167.622 48.752 166.694 48.752ZM165.494 44.576L168.254 40.736H171.254L167.582 44.576H165.494ZM173.781 47.024H181.533V49.016H173.781V47.024ZM176.517 43.856H178.797V59H176.517V43.856ZM186.475 42.08V44.552H183.619V42.08H186.475ZM183.907 47.024H186.187V59H183.907V47.024ZM198.674 55.112H200.858C200.73 55.896 200.426 56.6 199.946 57.224C199.466 57.848 198.834 58.344 198.05 58.712C197.266 59.08 196.346 59.264 195.29 59.264C194.042 59.264 192.93 59 191.954 58.472C190.978 57.944 190.21 57.216 189.65 56.288C189.09 55.36 188.81 54.28 188.81 53.048C188.81 51.8 189.082 50.712 189.626 49.784C190.17 48.84 190.922 48.104 191.882 47.576C192.842 47.048 193.938 46.784 195.17 46.784C196.466 46.784 197.554 47.04 198.434 47.552C199.314 48.064 199.962 48.824 200.378 49.832C200.81 50.824 200.986 52.064 200.906 53.552H191.09C191.17 54.272 191.386 54.912 191.738 55.472C192.106 56.032 192.586 56.472 193.178 56.792C193.786 57.112 194.482 57.272 195.266 57.272C196.146 57.272 196.882 57.072 197.474 56.672C198.066 56.272 198.466 55.752 198.674 55.112ZM195.194 48.752C194.154 48.752 193.29 49.032 192.602 49.592C191.914 50.136 191.458 50.864 191.234 51.776H198.602C198.538 50.8 198.186 50.056 197.546 49.544C196.906 49.016 196.122 48.752 195.194 48.752ZM214.636 59H212.356V47.024H214.636V59ZM212.476 53.36L212.5 54.08C212.484 54.288 212.428 54.6 212.332 55.016C212.252 55.416 212.108 55.856 211.9 56.336C211.708 56.816 211.436 57.28 211.084 57.728C210.748 58.176 210.316 58.544 209.788 58.832C209.26 59.12 208.62 59.264 207.868 59.264C207.356 59.264 206.828 59.192 206.284 59.048C205.756 58.904 205.268 58.664 204.82 58.328C204.372 57.992 204.012 57.536 203.74 56.96C203.468 56.368 203.332 55.632 203.332 54.752V47.024H205.636V54.272C205.636 55.008 205.748 55.584 205.972 56C206.212 56.416 206.548 56.712 206.98 56.888C207.412 57.064 207.9 57.152 208.444 57.152C209.276 57.152 209.972 56.952 210.532 56.552C211.108 56.136 211.556 55.64 211.876 55.064C212.196 54.472 212.396 53.904 212.476 53.36ZM217.653 47.024H219.957V59H217.653V47.024ZM224.013 49.064C223.181 49.064 222.469 49.256 221.877 49.64C221.301 50.024 220.837 50.496 220.485 51.056C220.149 51.616 219.925 52.152 219.813 52.664L219.789 51.296C219.805 51.136 219.845 50.888 219.909 50.552C219.989 50.2 220.125 49.808 220.317 49.376C220.509 48.944 220.765 48.536 221.085 48.152C221.405 47.752 221.805 47.424 222.285 47.168C222.765 46.912 223.341 46.784 224.013 46.784V49.064Z" fill="#B0663D"/>
</svg>
