<svg width="121" height="118" viewBox="0 0 121 118" fill="none" xmlns="http://www.w3.org/2000/svg">
<path d="M16.4 117.8V0H28.1C28.1 12.5 28.3 28.6 28.3 41.1C44.3 26.7 68.3 8.7 85 0H104.2C64.7 16.6 50.8 31.5 29.4 52.1C50.6 76.6 69.3 91.4 107 117.7H87.2C65.8 101 44.7 81.9 28 63.5C28 81 28 100.3 28 117.8H16.3H16.4Z" fill="#FFFFF0"/>
<path d="M120.7 106.2C75.7 83.5 62.9 71.7 62.9 71.7C53.6 63.6 47.5 57.8 43.3 52.1C56.2 41.6 67 31.3 77.9 27.2C84.3 24.8 89.2 23.6 94.9 24.7C101.1 26 103.9 28.2 105.7 29.8C111.6 34.7 113 42.8 113.2 47.3C113.4 51.8 112.4 63.6 105.2 68.7C103 70.2 99.8 70 98.3 68.9C96.8 67.8 97.2 68.1 96.3 66.5C95.4 64.9 95.2 62.4 94.9 57.6C94.4 48.5 96.1 34.2 96.1 34.2L90.8 35.5L90.6 38.8C88.7 36.7 86.6 35.3 84.3 34.4C82 33.5 79.8 33.3 77.5 33.6C74.5 34 71.6 35.4 68.7 37.7C65.9 40 63.2 43.2 62 47.6C60.7 52.1 60.8 56.2 61.5 60.4C62.4 65.6 64.7 69.6 68.4 72.5C71.5 74.9 75 75.9 78.9 75.2C84.6 74.2 91.2 64.9 91.2 64.9C91.8 67 93.5 70 94.5 71.2C96.3 73.4 98.8 75.2 101.9 75.2C106 75.2 111.6 70.6 114.4 65.5C119.3 56.5 119.3 48.1 117.7 40.9C117.2 38.8 116 35.3 114.5 32.9C112 28.9 108.3 25.6 105.2 23.8C97.8 19.5 86.4 18.8 76.6 23.2C64.6 28.6 52.6 38.8 42.7 46.1L35.6 52C35.6 52 52 68.2 57.7 73.1C72.6 85.8 93.1 98.9 114.4 110.5L120.5 106.1L120.7 106.2ZM95.1 21L89.2 58.7C88.1 62 86.5 64.6 84.5 66.4C82.5 68.2 80.5 69.2 78.6 69.5C76.4 69.8 74.2 69.1 72.2 67.5C70.1 65.9 68.8 63.3 68.2 59.9C67.7 56.7 67.9 53.3 69 49.7C70.1 46.1 71.5 43.5 73.3 42C75.1 40.4 77 39.5 79 39.2C81.6 38.8 83.9 39.5 86 41.1C88.1 42.7 89.5 45.3 90 48.8C90.6 52.2 90.3 55.6 89.2 58.9L95.1 21Z" fill="#FFFFF0"/>
<path d="M0 0C0 0 4.2 9.4 5.3 20.7C7.3 41.2 6.3 117.8 6.3 117.8H11.8V0H0Z" fill="#FFFFF0"/>
</svg>
