<svg width="1440" height="250" viewBox="0 0 1440 250" fill="none" xmlns="http://www.w3.org/2000/svg">
<path d="M1080.29 33.7658C1083.02 32.7203 1086.08 34.0855 1087.12 36.8152L1090.92 46.7001C1091.97 49.4298 1090.61 52.4902 1087.88 53.5357L1084.43 54.8609C1081.71 55.9065 1078.65 54.5412 1077.6 51.8116L1073.81 41.9266C1072.76 39.1969 1074.12 36.1365 1076.84 35.091L1080.29 33.7658Z" fill="white" fill-opacity="0.1"/>
<path d="M1059.58 41.7169C1062.31 40.6714 1065.36 42.0366 1066.41 44.7663L1070.2 54.6513C1071.25 57.3809 1069.89 60.4413 1067.17 61.4869L1063.72 62.812C1060.99 63.8576 1057.94 62.4924 1056.89 59.7627L1053.09 49.8777C1052.05 47.1481 1053.41 44.0877 1056.13 43.0421L1059.58 41.7169Z" fill="white" fill-opacity="0.1"/>
<path d="M1038.87 49.6681C1041.59 48.6225 1044.65 49.9878 1045.7 52.7174L1049.49 62.6024C1050.54 65.3321 1049.18 68.3925 1046.46 69.438L1043.5 70.5739C1040.77 71.6194 1037.72 70.2542 1036.67 67.5246L1032.87 57.6396C1031.83 54.9099 1033.19 51.8495 1035.91 50.804L1038.87 49.6681Z" fill="white" fill-opacity="0.1"/>
<path d="M1018.65 57.4299C1021.37 56.3844 1024.43 57.7496 1025.48 60.4793L1029.27 70.3642C1030.32 73.0939 1028.96 76.1543 1026.24 77.1998L1022.78 78.525C1020.06 79.5706 1017 78.2053 1015.96 75.4757L1012.16 65.5907C1011.11 62.8611 1012.47 59.8007 1015.2 58.7551L1018.65 57.4299Z" fill="white" fill-opacity="0.1"/>
<path d="M997.934 65.3811C1000.66 64.3355 1003.72 65.7008 1004.76 68.4304L1008.56 78.3154C1009.61 81.045 1008.25 84.1054 1005.52 85.151L1002.07 86.4762C999.347 87.5217 996.29 86.1565 995.242 83.4268L991.448 73.5418C990.4 70.8122 991.758 67.7518 994.482 66.7062L997.934 65.3811Z" fill="white" fill-opacity="0.1"/>
<path d="M977.221 73.3322C979.945 72.2866 983.002 73.6519 984.05 76.3815L987.844 86.2665C988.892 88.9962 987.534 92.0566 984.81 93.1021L981.358 94.4273C978.634 95.4729 975.576 94.1076 974.529 91.378L970.734 81.493C969.686 78.7633 971.045 75.7029 973.769 74.6574L977.221 73.3322Z" fill="white" fill-opacity="0.1"/>
<path d="M956.507 81.2833C959.231 80.2378 962.289 81.603 963.336 84.3327L967.131 94.2177C968.179 96.9473 966.82 100.008 964.096 101.053L961.137 102.189C958.414 103.235 955.356 101.869 954.308 99.1398L950.514 89.2548C949.466 86.5252 950.825 83.4648 953.548 82.4192L956.507 81.2833Z" fill="white" fill-opacity="0.1"/>
<path d="M936.287 89.0451C939.011 87.9996 942.068 89.3649 943.116 92.0945L946.911 101.979C947.959 104.709 946.6 107.77 943.876 108.815L940.424 110.14C937.7 111.186 934.643 109.821 933.595 107.091L929.8 97.206C928.753 94.4763 930.111 91.4159 932.835 90.3703L936.287 89.0451Z" fill="white" fill-opacity="0.1"/>
<path d="M915.574 96.9963C918.298 95.9508 921.355 97.316 922.403 100.046L926.197 109.931C927.245 112.66 925.886 115.721 923.163 116.766L919.71 118.091C916.987 119.137 913.929 117.772 912.882 115.042L909.087 105.157C908.039 102.427 909.398 99.367 912.122 98.3215L915.574 96.9963Z" fill="white" fill-opacity="0.1"/>
<path d="M894.86 104.947C897.584 103.902 900.642 105.267 901.689 107.997L905.484 117.882C906.532 120.611 905.173 123.672 902.449 124.717L898.997 126.043C896.273 127.088 893.216 125.723 892.168 122.993L888.374 113.108C887.326 110.379 888.684 107.318 891.408 106.273L894.86 104.947Z" fill="white" fill-opacity="0.1"/>
<path d="M874.147 112.899C876.871 111.853 879.928 113.218 880.976 115.948L884.77 125.833C885.818 128.563 884.46 131.623 881.736 132.668L878.284 133.994C875.56 135.039 872.502 133.674 871.455 130.944L867.66 121.059C866.612 118.33 867.971 115.269 870.695 114.224L874.147 112.899Z" fill="white" fill-opacity="0.1"/>
<path d="M853.433 120.85C856.157 119.804 859.215 121.169 860.262 123.899L864.057 133.784C865.105 136.514 863.746 139.574 861.022 140.62L858.063 141.756C855.34 142.801 852.282 141.436 851.234 138.706L847.44 128.821C846.392 126.092 847.751 123.031 850.474 121.986L853.433 120.85Z" fill="white" fill-opacity="0.1"/>
<path d="M833.213 128.612C835.937 127.566 838.994 128.931 840.042 131.661L843.837 141.546C844.884 144.276 843.526 147.336 840.802 148.381L837.35 149.707C834.626 150.752 831.569 149.387 830.521 146.657L826.726 136.772C825.679 134.043 827.037 130.982 829.761 129.937L833.213 128.612Z" fill="white" fill-opacity="0.1"/>
<path d="M812.5 136.563C815.224 135.517 818.281 136.882 819.329 139.612L823.123 149.497C824.171 152.227 822.812 155.287 820.089 156.333L816.637 157.658C813.913 158.703 810.855 157.338 809.807 154.608L806.013 144.724C804.965 141.994 806.324 138.933 809.048 137.888L812.5 136.563Z" fill="white" fill-opacity="0.1"/>
<path d="M791.786 144.514C794.51 143.468 797.568 144.834 798.615 147.563L802.41 157.448C803.458 160.178 802.099 163.238 799.375 164.284L795.923 165.609C793.199 166.655 790.142 165.289 789.094 162.56L785.3 152.675C784.252 149.945 785.61 146.885 788.334 145.839L791.786 144.514Z" fill="white" fill-opacity="0.1"/>
<path d="M771.073 152.465C773.797 151.419 776.854 152.785 777.902 155.514L781.696 165.399C782.744 168.129 781.386 171.189 778.662 172.235L775.703 173.371C772.979 174.416 769.922 173.051 768.874 170.321L765.079 160.436C764.032 157.707 765.39 154.646 768.114 153.601L771.073 152.465Z" fill="white" fill-opacity="0.1"/>
<path d="M750.853 160.227C753.576 159.181 756.634 160.546 757.682 163.276L761.476 173.161C762.524 175.891 761.165 178.951 758.442 179.997L754.989 181.322C752.266 182.367 749.208 181.002 748.16 178.273L744.366 168.388C743.318 165.658 744.677 162.598 747.4 161.552L750.853 160.227Z" fill="white" fill-opacity="0.1"/>
<path d="M1036.28 -80.8998C1039 -81.9454 1042.06 -80.5801 1043.11 -77.8505L1046.9 -67.9655C1047.95 -65.2358 1046.59 -62.1754 1043.87 -61.1299L1040.42 -59.8047C1037.69 -58.7592 1034.63 -60.1244 1033.59 -62.8541L1029.79 -72.739C1028.74 -75.4687 1030.1 -78.5291 1032.83 -79.5746L1036.28 -80.8998Z" fill="white" fill-opacity="0.1"/>
<path d="M1015.57 -72.9487C1018.29 -73.9942 1021.35 -72.629 1022.39 -69.8993L1026.19 -60.0144C1027.24 -57.2847 1025.88 -54.2243 1023.15 -53.1788L1019.7 -51.8536C1016.98 -50.808 1013.92 -52.1733 1012.87 -54.9029L1009.08 -64.7879C1008.03 -67.5176 1009.39 -70.578 1012.11 -71.6235L1015.57 -72.9487Z" fill="white" fill-opacity="0.1"/>
<path d="M994.852 -64.9976C997.576 -66.0431 1000.63 -64.6779 1001.68 -61.9482L1005.48 -52.0632C1006.52 -49.3336 1005.16 -46.2732 1002.44 -45.2276L999.482 -44.0917C996.758 -43.0462 993.701 -44.4114 992.653 -47.1411L988.858 -57.0261C987.811 -59.7557 989.169 -62.8161 991.893 -63.8617L994.852 -64.9976Z" fill="white" fill-opacity="0.1"/>
<path d="M974.632 -57.2357C977.355 -58.2813 980.413 -56.916 981.461 -54.1864L985.255 -44.3014C986.303 -41.5717 984.944 -38.5113 982.221 -37.4658L978.768 -36.1406C976.045 -35.0951 972.987 -36.4603 971.939 -39.19L968.145 -49.0749C967.097 -51.8046 968.456 -54.865 971.18 -55.9105L974.632 -57.2357Z" fill="white" fill-opacity="0.1"/>
<path d="M953.918 -49.2846C956.642 -50.3301 959.699 -48.9649 960.747 -46.2352L964.542 -36.3503C965.59 -33.6206 964.231 -30.5602 961.507 -29.5146L958.055 -28.1895C955.331 -27.1439 952.274 -28.5092 951.226 -31.2388L947.432 -41.1238C946.384 -43.8534 947.742 -46.9138 950.466 -47.9594L953.918 -49.2846Z" fill="white" fill-opacity="0.1"/>
<path d="M933.205 -41.3335C935.929 -42.379 938.986 -41.0137 940.034 -38.2841L943.828 -28.3991C944.876 -25.6695 943.518 -22.6091 940.794 -21.5635L937.342 -20.2383C934.618 -19.1928 931.56 -20.558 930.513 -23.2877L926.718 -33.1726C925.67 -35.9023 927.029 -38.9627 929.753 -40.0083L933.205 -41.3335Z" fill="white" fill-opacity="0.1"/>
<path d="M912.491 -33.3823C915.215 -34.4278 918.273 -33.0626 919.32 -30.3329L923.115 -20.448C924.163 -17.7183 922.804 -14.6579 920.08 -13.6124L917.121 -12.4765C914.398 -11.4309 911.34 -12.7962 910.292 -15.5258L906.498 -25.4108C905.45 -28.1405 906.809 -31.2009 909.532 -32.2464L912.491 -33.3823Z" fill="white" fill-opacity="0.1"/>
<path d="M892.271 -25.6205C894.995 -26.666 898.052 -25.3008 899.1 -22.5711L902.895 -12.6862C903.943 -9.95649 902.584 -6.89609 899.86 -5.85055L896.408 -4.52535C893.684 -3.4798 890.627 -4.84505 889.579 -7.57471L885.784 -17.4597C884.737 -20.1893 886.095 -23.2497 888.819 -24.2953L892.271 -25.6205Z" fill="white" fill-opacity="0.1"/>
<path d="M871.558 -17.6693C874.282 -18.7149 877.339 -17.3496 878.387 -14.62L882.181 -4.73499C883.229 -2.00534 881.87 1.05505 879.147 2.1006L875.694 3.4258C872.971 4.47133 869.913 3.10609 868.865 0.376429L865.071 -9.50854C864.023 -12.2382 865.382 -15.2986 868.105 -16.3441L871.558 -17.6693Z" fill="white" fill-opacity="0.1"/>
<path d="M850.844 -9.71818C853.568 -10.7637 856.626 -9.39851 857.673 -6.66885L861.468 3.21612C862.516 5.94578 861.157 9.00621 858.433 10.0518L854.981 11.3769C852.257 12.4225 849.2 11.0572 848.152 8.32759L844.358 -1.55738C843.31 -4.28704 844.668 -7.34747 847.392 -8.39302L850.844 -9.71818Z" fill="white" fill-opacity="0.1"/>
<path d="M830.131 -1.76707C832.855 -2.8126 835.912 -1.44735 836.96 1.28231L840.754 11.1673C841.802 13.8969 840.444 16.9573 837.72 18.0029L834.268 19.3281C831.544 20.3736 828.486 19.0084 827.439 16.2787L823.644 6.39375C822.596 3.66409 823.955 0.603687 826.679 -0.441866L830.131 -1.76707Z" fill="white" fill-opacity="0.1"/>
<path d="M809.417 6.18409C812.141 5.13854 815.199 6.50378 816.246 9.23344L820.041 19.1184C821.089 21.8481 819.73 24.9085 817.006 25.954L814.047 27.0899C811.324 28.1355 808.266 26.7702 807.218 24.0405L803.424 14.1556C802.376 11.4259 803.735 8.36551 806.458 7.31996L809.417 6.18409Z" fill="white" fill-opacity="0.1"/>
<path d="M789.197 13.9459C791.921 12.9004 794.978 14.2656 796.026 16.9953L799.821 26.8803C800.868 29.6099 799.51 32.6703 796.786 33.7159L793.334 35.0411C790.61 36.0866 787.553 34.7213 786.505 31.9917L782.71 22.1067C781.663 19.3771 783.021 16.3167 785.745 15.2711L789.197 13.9459Z" fill="white" fill-opacity="0.1"/>
<path d="M768.484 21.8971C771.207 20.8515 774.265 22.2167 775.313 24.9464L779.107 34.8314C780.155 37.561 778.796 40.6215 776.073 41.667L772.621 42.9922C769.897 44.0377 766.839 42.6725 765.791 39.9428L761.997 30.0579C760.949 27.3282 762.308 24.2678 765.032 23.2223L768.484 21.8971Z" fill="white" fill-opacity="0.1"/>
<path d="M747.77 29.8482C750.494 28.8027 753.552 30.1679 754.599 32.8976L758.394 42.7825C759.442 45.5122 758.083 48.5726 755.359 49.6181L751.907 50.9433C749.183 51.9889 746.126 50.6236 745.078 47.894L741.284 38.009C740.236 35.2793 741.594 32.2189 744.318 31.1734L747.77 29.8482Z" fill="white" fill-opacity="0.1"/>
<path d="M727.057 37.7993C729.781 36.7538 732.838 38.119 733.886 40.8487L737.68 50.7337C738.728 53.4633 737.37 56.5237 734.646 57.5693L731.687 58.7051C728.963 59.7507 725.906 58.3855 724.858 55.6558L721.063 45.7708C720.016 43.0412 721.374 39.9808 724.098 38.9352L727.057 37.7993Z" fill="white" fill-opacity="0.1"/>
<path d="M706.837 45.5612C709.56 44.5156 712.618 45.8809 713.666 48.6105L717.46 58.4955C718.508 61.2251 717.149 64.2856 714.426 65.3311L710.973 66.6563C708.25 67.7018 705.192 66.3366 704.144 63.607L700.35 53.722C699.302 50.9923 700.661 47.9319 703.384 46.8863L706.837 45.5612Z" fill="white" fill-opacity="0.1"/>
<path d="M1083.33 26.9302C1083.85 28.295 1083.17 29.8252 1081.81 30.348L920.05 92.4426C918.688 92.9654 917.159 92.2828 916.636 90.918L884.003 5.90722C883.479 4.54239 884.158 3.01219 885.52 2.4894L1047.28 -59.6052C1048.64 -60.128 1050.17 -59.4454 1050.7 -58.0805L1083.33 26.9302Z" fill="white" fill-opacity="0.1"/>
<path d="M907.265 94.5149C907.789 95.8797 907.11 97.4099 905.748 97.9327L743.986 160.027C742.624 160.55 741.095 159.867 740.571 158.503L707.939 73.4919C707.415 72.1271 708.094 70.5969 709.456 70.0741L871.218 7.9795C872.58 7.45671 874.109 8.13933 874.633 9.50416L907.265 94.5149Z" fill="white" fill-opacity="0.1"/>
<path d="M1432.52 -101.441C1435.24 -102.487 1438.3 -101.122 1439.35 -98.3919L1443.14 -88.5069C1444.19 -85.7772 1442.83 -82.7169 1440.11 -81.6713L1436.66 -80.3461C1433.93 -79.3006 1430.88 -80.6658 1429.83 -83.3955L1426.03 -93.2804C1424.99 -96.0101 1426.35 -99.0705 1429.07 -100.116L1432.52 -101.441Z" fill="white" fill-opacity="0.1"/>
<path d="M1411.81 -93.4901C1414.53 -94.5356 1417.59 -93.1704 1418.64 -90.4407L1422.43 -80.5558C1423.48 -77.8261 1422.12 -74.7657 1419.4 -73.7202L1415.94 -72.395C1413.22 -71.3494 1410.16 -72.7147 1409.12 -75.4443L1405.32 -85.3293C1404.27 -88.0589 1405.63 -91.1194 1408.36 -92.1649L1411.81 -93.4901Z" fill="white" fill-opacity="0.1"/>
<path d="M1391.09 -85.5389C1393.82 -86.5845 1396.88 -85.2193 1397.92 -82.4896L1401.72 -72.6046C1402.77 -69.875 1401.41 -66.8146 1398.68 -65.769L1395.72 -64.6331C1393 -63.5876 1389.94 -64.9528 1388.9 -67.6825L1385.1 -77.5675C1384.05 -80.2971 1385.41 -83.3575 1388.14 -84.4031L1391.09 -85.5389Z" fill="white" fill-opacity="0.1"/>
<path d="M1370.87 -77.7771C1373.6 -78.8227 1376.66 -77.4574 1377.7 -74.7278L1381.5 -64.8428C1382.55 -62.1131 1381.19 -59.0527 1378.46 -58.0072L1375.01 -56.682C1372.29 -55.6365 1369.23 -57.0017 1368.18 -59.7313L1364.39 -69.6163C1363.34 -72.346 1364.7 -75.4064 1367.42 -76.4519L1370.87 -77.7771Z" fill="white" fill-opacity="0.1"/>
<path d="M1350.16 -69.826C1352.88 -70.8715 1355.94 -69.5063 1356.99 -66.7766L1360.78 -56.8917C1361.83 -54.162 1360.47 -51.1016 1357.75 -50.0561L1354.3 -48.7309C1351.57 -47.6853 1348.52 -49.0505 1347.47 -51.7802L1343.67 -61.6652C1342.63 -64.3948 1343.98 -67.4552 1346.71 -68.5008L1350.16 -69.826Z" fill="white" fill-opacity="0.1"/>
<path d="M1329.45 -61.8748C1332.17 -62.9204 1335.23 -61.5551 1336.28 -58.8255L1340.07 -48.9405C1341.12 -46.2109 1339.76 -43.1505 1337.04 -42.1049L1333.58 -40.7797C1330.86 -39.7342 1327.8 -41.0994 1326.76 -43.8291L1322.96 -53.714C1321.91 -56.4437 1323.27 -59.5041 1326 -60.5496L1329.45 -61.8748Z" fill="white" fill-opacity="0.1"/>
<path d="M1308.73 -53.9237C1311.46 -54.9692 1314.52 -53.604 1315.56 -50.8743L1319.36 -40.9894C1320.41 -38.2597 1319.05 -35.1993 1316.32 -34.1538L1313.36 -33.0179C1310.64 -31.9724 1307.58 -33.3376 1306.53 -36.0672L1302.74 -45.9522C1301.69 -48.6819 1303.05 -51.7423 1305.77 -52.7878L1308.73 -53.9237Z" fill="white" fill-opacity="0.1"/>
<path d="M1288.51 -46.1619C1291.24 -47.2074 1294.29 -45.8422 1295.34 -43.1125L1299.14 -33.2275C1300.18 -30.4979 1298.83 -27.4375 1296.1 -26.3919L1292.65 -25.0668C1289.93 -24.0212 1286.87 -25.3864 1285.82 -28.1161L1282.03 -38.0011C1280.98 -40.7307 1282.34 -43.7911 1285.06 -44.8367L1288.51 -46.1619Z" fill="white" fill-opacity="0.1"/>
<path d="M1267.8 -38.2107C1270.52 -39.2563 1273.58 -37.891 1274.63 -35.1614L1278.42 -25.2764C1279.47 -22.5467 1278.11 -19.4863 1275.39 -18.4408L1271.94 -17.1156C1269.21 -16.0701 1266.16 -17.4353 1265.11 -20.165L1261.31 -30.0499C1260.27 -32.7796 1261.62 -35.84 1264.35 -36.8855L1267.8 -38.2107Z" fill="white" fill-opacity="0.1"/>
<path d="M1247.09 -30.2596C1249.81 -31.3051 1252.87 -29.9399 1253.92 -27.2102L1257.71 -17.3253C1258.76 -14.5956 1257.4 -11.5352 1254.68 -10.4897L1251.22 -9.16448C1248.5 -8.11893 1245.44 -9.48416 1244.39 -12.2138L1240.6 -22.0988C1239.55 -24.8284 1240.91 -27.8889 1243.63 -28.9344L1247.09 -30.2596Z" fill="white" fill-opacity="0.1"/>
<path d="M1226.37 -22.3084C1229.1 -23.354 1232.15 -21.9888 1233.2 -19.2591L1237 -9.37412C1238.04 -6.64446 1236.69 -3.58407 1233.96 -2.53853L1230.51 -1.21334C1227.79 -0.167788 1224.73 -1.53302 1223.68 -4.26267L1219.89 -14.1476C1218.84 -16.8773 1220.2 -19.9377 1222.92 -20.9833L1226.37 -22.3084Z" fill="white" fill-opacity="0.1"/>
<path d="M1205.66 -14.3573C1208.38 -15.4029 1211.44 -14.0376 1212.49 -11.308L1216.28 -1.42298C1217.33 1.30667 1215.97 4.36707 1213.25 5.41261L1210.29 6.54849C1207.57 7.59404 1204.51 6.22881 1203.46 3.49915L1199.67 -6.38582C1198.62 -9.11548 1199.98 -12.1759 1202.7 -13.2214L1205.66 -14.3573Z" fill="white" fill-opacity="0.1"/>
<path d="M1185.44 -6.59548C1188.16 -7.64102 1191.22 -6.27578 1192.27 -3.54612L1196.06 6.33885C1197.11 9.06851 1195.75 12.1289 1193.03 13.1744L1189.58 14.4996C1186.85 15.5452 1183.8 14.1799 1182.75 11.4503L1178.95 1.56531C1177.91 -1.16435 1179.26 -4.22474 1181.99 -5.27029L1185.44 -6.59548Z" fill="white" fill-opacity="0.1"/>
<path d="M1164.73 1.35566C1167.45 0.310122 1170.51 1.67535 1171.56 4.40501L1175.35 14.29C1176.4 17.0196 1175.04 20.08 1172.32 21.1256L1168.86 22.4508C1166.14 23.4963 1163.08 22.1311 1162.03 19.4014L1158.24 9.51647C1157.19 6.78681 1158.55 3.7264 1161.27 2.68085L1164.73 1.35566Z" fill="white" fill-opacity="0.1"/>
<path d="M1144.01 9.3068C1146.74 8.26126 1149.79 9.6265 1150.84 12.3562L1154.64 22.2411C1155.68 24.9708 1154.33 28.0312 1151.6 29.0767L1148.15 30.4019C1145.43 31.4475 1142.37 30.0822 1141.32 27.3526L1137.53 17.4676C1136.48 14.7379 1137.84 11.6775 1140.56 10.632L1144.01 9.3068Z" fill="white" fill-opacity="0.1"/>
<path d="M1123.3 17.2579C1126.02 16.2124 1129.08 17.5776 1130.13 20.3073L1133.92 30.1923C1134.97 32.9219 1133.61 35.9823 1130.89 37.0279L1127.93 38.1637C1125.21 39.2093 1122.15 37.8441 1121.1 35.1144L1117.31 25.2294C1116.26 22.4998 1117.62 19.4394 1120.34 18.3938L1123.3 17.2579Z" fill="white" fill-opacity="0.1"/>
<path d="M1103.08 25.0198C1105.8 23.9742 1108.86 25.3395 1109.91 28.0691L1113.7 37.9541C1114.75 40.6838 1113.39 43.7441 1110.67 44.7897L1107.22 46.1149C1104.49 47.1604 1101.43 45.7952 1100.39 43.0655L1096.59 33.1806C1095.54 30.4509 1096.9 27.3905 1099.63 26.345L1103.08 25.0198Z" fill="white" fill-opacity="0.1"/>
<path d="M1388.51 -216.107C1391.23 -217.152 1394.29 -215.787 1395.33 -213.058L1399.13 -203.173C1400.18 -200.443 1398.82 -197.382 1396.09 -196.337L1392.64 -195.012C1389.92 -193.966 1386.86 -195.331 1385.81 -198.061L1382.02 -207.946C1380.97 -210.676 1382.33 -213.736 1385.05 -214.782L1388.51 -216.107Z" fill="white" fill-opacity="0.1"/>
<path d="M1367.79 -208.156C1370.52 -209.201 1373.57 -207.836 1374.62 -205.106L1378.42 -195.221C1379.46 -192.492 1378.1 -189.431 1375.38 -188.386L1371.93 -187.061C1369.2 -186.015 1366.15 -187.38 1365.1 -190.11L1361.31 -199.995C1360.26 -202.725 1361.62 -205.785 1364.34 -206.831L1367.79 -208.156Z" fill="white" fill-opacity="0.1"/>
<path d="M1347.08 -200.205C1349.8 -201.25 1352.86 -199.885 1353.91 -197.155L1357.7 -187.27C1358.75 -184.541 1357.39 -181.48 1354.67 -180.435L1351.71 -179.299C1348.98 -178.253 1345.93 -179.618 1344.88 -182.348L1341.08 -192.233C1340.04 -194.963 1341.4 -198.023 1344.12 -199.069L1347.08 -200.205Z" fill="white" fill-opacity="0.1"/>
<path d="M1326.86 -192.443C1329.58 -193.488 1332.64 -192.123 1333.69 -189.393L1337.48 -179.508C1338.53 -176.779 1337.17 -173.718 1334.45 -172.673L1330.99 -171.348C1328.27 -170.302 1325.21 -171.667 1324.17 -174.397L1320.37 -184.282C1319.32 -187.012 1320.68 -190.072 1323.41 -191.118L1326.86 -192.443Z" fill="white" fill-opacity="0.1"/>
<path d="M1306.14 -184.492C1308.87 -185.537 1311.93 -184.172 1312.97 -181.442L1316.77 -171.557C1317.82 -168.828 1316.46 -165.767 1313.73 -164.722L1310.28 -163.396C1307.56 -162.351 1304.5 -163.716 1303.45 -166.446L1299.66 -176.331C1298.61 -179.06 1299.97 -182.121 1302.69 -183.166L1306.14 -184.492Z" fill="white" fill-opacity="0.1"/>
<path d="M1285.43 -176.54C1288.16 -177.586 1291.21 -176.221 1292.26 -173.491L1296.05 -163.606C1297.1 -160.876 1295.74 -157.816 1293.02 -156.771L1289.57 -155.445C1286.84 -154.4 1283.79 -155.765 1282.74 -158.495L1278.94 -168.38C1277.9 -171.109 1279.26 -174.17 1281.98 -175.215L1285.43 -176.54Z" fill="white" fill-opacity="0.1"/>
<path d="M1264.72 -168.589C1267.44 -169.635 1270.5 -168.27 1271.55 -165.54L1275.34 -155.655C1276.39 -152.925 1275.03 -149.865 1272.31 -148.819L1269.35 -147.684C1266.62 -146.638 1263.57 -148.003 1262.52 -150.733L1258.72 -160.618C1257.68 -163.348 1259.04 -166.408 1261.76 -167.453L1264.72 -168.589Z" fill="white" fill-opacity="0.1"/>
<path d="M1244.5 -160.828C1247.22 -161.873 1250.28 -160.508 1251.33 -157.778L1255.12 -147.893C1256.17 -145.164 1254.81 -142.103 1252.09 -141.058L1248.63 -139.732C1245.91 -138.687 1242.85 -140.052 1241.81 -142.782L1238.01 -152.667C1236.96 -155.396 1238.32 -158.457 1241.05 -159.502L1244.5 -160.828Z" fill="white" fill-opacity="0.1"/>
<path d="M1223.78 -152.876C1226.51 -153.922 1229.57 -152.557 1230.61 -149.827L1234.41 -139.942C1235.46 -137.212 1234.1 -134.152 1231.37 -133.106L1227.92 -131.781C1225.2 -130.736 1222.14 -132.101 1221.09 -134.831L1217.3 -144.716C1216.25 -147.445 1217.61 -150.506 1220.33 -151.551L1223.78 -152.876Z" fill="white" fill-opacity="0.1"/>
<path d="M1203.07 -144.925C1205.79 -145.971 1208.85 -144.606 1209.9 -141.876L1213.69 -131.991C1214.74 -129.261 1213.38 -126.201 1210.66 -125.155L1207.21 -123.83C1204.48 -122.785 1201.43 -124.15 1200.38 -126.879L1196.58 -136.764C1195.54 -139.494 1196.89 -142.554 1199.62 -143.6L1203.07 -144.925Z" fill="white" fill-opacity="0.1"/>
<path d="M1182.36 -136.974C1185.08 -138.02 1188.14 -136.654 1189.19 -133.925L1192.98 -124.04C1194.03 -121.31 1192.67 -118.25 1189.95 -117.204L1186.49 -115.879C1183.77 -114.833 1180.71 -116.199 1179.67 -118.928L1175.87 -128.813C1174.82 -131.543 1176.18 -134.603 1178.91 -135.649L1182.36 -136.974Z" fill="white" fill-opacity="0.1"/>
<path d="M1161.64 -129.023C1164.37 -130.068 1167.43 -128.703 1168.47 -125.974L1172.27 -116.089C1173.32 -113.359 1171.96 -110.299 1169.23 -109.253L1166.27 -108.117C1163.55 -107.072 1160.49 -108.437 1159.44 -111.166L1155.65 -121.051C1154.6 -123.781 1155.96 -126.842 1158.68 -127.887L1161.64 -129.023Z" fill="white" fill-opacity="0.1"/>
<path d="M1141.42 -121.261C1144.15 -122.307 1147.2 -120.941 1148.25 -118.212L1152.05 -108.327C1153.09 -105.597 1151.74 -102.537 1149.01 -101.491L1145.56 -100.166C1142.84 -99.1204 1139.78 -100.486 1138.73 -103.215L1134.94 -113.1C1133.89 -115.83 1135.25 -118.89 1137.97 -119.936L1141.42 -121.261Z" fill="white" fill-opacity="0.1"/>
<path d="M1120.71 -113.31C1123.43 -114.356 1126.49 -112.99 1127.54 -110.261L1131.33 -100.376C1132.38 -97.646 1131.02 -94.5856 1128.3 -93.54L1124.85 -92.2148C1122.12 -91.1693 1119.07 -92.5345 1118.02 -95.2642L1114.22 -105.149C1113.18 -107.879 1114.53 -110.939 1117.26 -111.985L1120.71 -113.31Z" fill="white" fill-opacity="0.1"/>
<path d="M1100 -105.359C1102.72 -106.404 1105.78 -105.039 1106.83 -102.309L1110.62 -92.4245C1111.67 -89.6949 1110.31 -86.6344 1107.59 -85.5889L1104.13 -84.2637C1101.41 -83.2182 1098.35 -84.5834 1097.3 -87.3131L1093.51 -97.198C1092.46 -99.9277 1093.82 -102.988 1096.54 -104.034L1100 -105.359Z" fill="white" fill-opacity="0.1"/>
<path d="M1079.28 -97.4077C1082.01 -98.4532 1085.06 -97.088 1086.11 -94.3583L1089.91 -84.4734C1090.95 -81.7437 1089.6 -78.6833 1086.87 -77.6378L1083.91 -76.5019C1081.19 -75.4563 1078.13 -76.8216 1077.08 -79.5512L1073.29 -89.4362C1072.24 -92.1659 1073.6 -95.2263 1076.32 -96.2718L1079.28 -97.4077Z" fill="white" fill-opacity="0.1"/>
<path d="M1059.06 -89.6459C1061.79 -90.6914 1064.84 -89.3262 1065.89 -86.5965L1069.69 -76.7115C1070.73 -73.9819 1069.38 -70.9215 1066.65 -69.8759L1063.2 -68.5507C1060.48 -67.5052 1057.42 -68.8704 1056.37 -71.6001L1052.58 -81.4851C1051.53 -84.2147 1052.89 -87.2751 1055.61 -88.3207L1059.06 -89.6459Z" fill="white" fill-opacity="0.1"/>
<path d="M1435.56 -108.277C1436.08 -106.912 1435.4 -105.382 1434.04 -104.859L1272.28 -42.7644C1270.91 -42.2416 1269.39 -42.9243 1268.86 -44.2891L1236.23 -129.3C1235.71 -130.665 1236.38 -132.195 1237.75 -132.718L1399.51 -194.812C1400.87 -195.335 1402.4 -194.652 1402.92 -193.288L1435.56 -108.277Z" fill="white" fill-opacity="0.1"/>
<path d="M1259.49 -40.6921C1260.02 -39.3273 1259.34 -37.7971 1257.97 -37.2743L1096.21 24.8203C1094.85 25.3431 1093.32 24.6604 1092.8 23.2956L1060.17 -61.7151C1059.64 -63.08 1060.32 -64.6102 1061.68 -65.1329L1223.44 -127.228C1224.81 -127.75 1226.34 -127.068 1226.86 -125.703L1259.49 -40.6921Z" fill="white" fill-opacity="0.1"/>
<path d="M375.842 304.18C378.566 303.134 381.623 304.5 382.671 307.229L386.466 317.114C387.513 319.844 386.155 322.904 383.431 323.95L379.979 325.275C377.255 326.321 374.198 324.955 373.15 322.226L369.355 312.341C368.308 309.611 369.666 306.551 372.39 305.505L375.842 304.18Z" fill="white" fill-opacity="0.1"/>
<path d="M355.129 312.131C357.852 311.085 360.91 312.451 361.958 315.18L365.752 325.065C366.8 327.795 365.441 330.855 362.718 331.901L359.265 333.226C356.542 334.272 353.484 332.906 352.436 330.177L348.642 320.292C347.594 317.562 348.953 314.502 351.676 313.456L355.129 312.131Z" fill="white" fill-opacity="0.1"/>
<path d="M334.415 320.082C337.139 319.037 340.196 320.402 341.244 323.132L345.039 333.016C346.087 335.746 344.728 338.807 342.004 339.852L339.045 340.988C336.321 342.033 333.264 340.668 332.216 337.939L328.422 328.054C327.374 325.324 328.733 322.264 331.456 321.218L334.415 320.082Z" fill="white" fill-opacity="0.1"/>
<path d="M314.195 327.844C316.919 326.798 319.976 328.164 321.024 330.893L324.818 340.778C325.866 343.508 324.508 346.568 321.784 347.614L318.332 348.939C315.608 349.985 312.55 348.619 311.503 345.89L307.708 336.005C306.66 333.275 308.019 330.215 310.743 329.169L314.195 327.844Z" fill="white" fill-opacity="0.1"/>
<path d="M293.482 335.795C296.205 334.75 299.263 336.115 300.311 338.844L304.105 348.729C305.153 351.459 303.794 354.52 301.07 355.565L297.618 356.89C294.895 357.936 291.837 356.571 290.789 353.841L286.995 343.956C285.947 341.226 287.306 338.166 290.029 337.12L293.482 335.795Z" fill="white" fill-opacity="0.1"/>
<path d="M272.768 343.746C275.492 342.701 278.549 344.066 279.597 346.796L283.392 356.681C284.439 359.41 283.081 362.471 280.357 363.516L276.905 364.841C274.181 365.887 271.124 364.522 270.076 361.792L266.281 351.907C265.234 349.177 266.592 346.117 269.316 345.071L272.768 343.746Z" fill="white" fill-opacity="0.1"/>
<path d="M252.055 351.697C254.779 350.652 257.836 352.017 258.884 354.747L262.678 364.632C263.726 367.361 262.367 370.422 259.644 371.467L256.685 372.603C253.961 373.649 250.903 372.284 249.856 369.554L246.061 359.669C245.013 356.939 246.372 353.879 249.096 352.833L252.055 351.697Z" fill="white" fill-opacity="0.1"/>
<path d="M231.834 359.459C234.558 358.414 237.616 359.779 238.664 362.509L242.458 372.394C243.506 375.123 242.147 378.184 239.423 379.229L235.971 380.554C233.247 381.6 230.19 380.235 229.142 377.505L225.348 367.62C224.3 364.89 225.658 361.83 228.382 360.784L231.834 359.459Z" fill="white" fill-opacity="0.1"/>
<path d="M211.121 367.41C213.845 366.365 216.902 367.73 217.95 370.46L221.744 380.345C222.792 383.074 221.434 386.135 218.71 387.18L215.258 388.505C212.534 389.551 209.477 388.186 208.429 385.456L204.634 375.571C203.587 372.841 204.945 369.781 207.669 368.736L211.121 367.41Z" fill="white" fill-opacity="0.1"/>
<path d="M190.408 375.361C193.131 374.316 196.189 375.681 197.237 378.411L201.031 388.296C202.079 391.025 200.72 394.086 197.997 395.131L194.544 396.457C191.821 397.502 188.763 396.137 187.715 393.407L183.921 383.522C182.873 380.793 184.232 377.732 186.955 376.687L190.408 375.361Z" fill="white" fill-opacity="0.1"/>
<path d="M169.694 383.313C172.418 382.267 175.475 383.632 176.523 386.362L180.318 396.247C181.366 398.977 180.007 402.037 177.283 403.083L173.831 404.408C171.107 405.453 168.05 404.088 167.002 401.358L163.207 391.473C162.16 388.744 163.518 385.683 166.242 384.638L169.694 383.313Z" fill="white" fill-opacity="0.1"/>
<path d="M148.981 391.264C151.704 390.218 154.762 391.583 155.81 394.313L159.604 404.198C160.652 406.928 159.293 409.988 156.57 411.034L153.611 412.17C150.887 413.215 147.829 411.85 146.782 409.12L142.987 399.235C141.939 396.506 143.298 393.445 146.022 392.4L148.981 391.264Z" fill="white" fill-opacity="0.1"/>
<path d="M128.761 399.026C131.484 397.98 134.542 399.345 135.59 402.075L139.384 411.96C140.432 414.69 139.073 417.75 136.35 418.796L132.897 420.121C130.173 421.166 127.116 419.801 126.068 417.071L122.274 407.186C121.226 404.457 122.584 401.396 125.308 400.351L128.761 399.026Z" fill="white" fill-opacity="0.1"/>
<path d="M108.047 406.977C110.771 405.931 113.828 407.296 114.876 410.026L118.671 419.911C119.718 422.641 118.36 425.701 115.636 426.747L112.184 428.072C109.46 429.117 106.403 427.752 105.355 425.023L101.56 415.138C100.513 412.408 101.871 409.347 104.595 408.302L108.047 406.977Z" fill="white" fill-opacity="0.1"/>
<path d="M87.3336 414.928C90.0573 413.882 93.1147 415.248 94.1626 417.977L97.9571 427.862C99.0049 430.592 97.6463 433.652 94.9226 434.698L91.4704 436.023C88.7466 437.069 85.689 435.703 84.6412 432.974L80.8467 423.089C79.7989 420.359 81.1576 417.299 83.8814 416.253L87.3336 414.928Z" fill="white" fill-opacity="0.1"/>
<path d="M66.6202 422.879C69.3439 421.833 72.4014 423.199 73.4492 425.928L77.2437 435.813C78.2915 438.543 76.9329 441.603 74.2092 442.649L71.2501 443.785C68.5264 444.83 65.4689 443.465 64.4211 440.735L60.6266 430.851C59.5788 428.121 60.9374 425.06 63.6611 424.015L66.6202 422.879Z" fill="white" fill-opacity="0.1"/>
<path d="M46.3999 430.641C49.1236 429.595 52.181 430.961 53.2288 433.69L57.0233 443.575C58.0712 446.305 56.7125 449.365 53.9888 450.411L50.5367 451.736C47.8129 452.782 44.7554 451.416 43.7076 448.687L39.9131 438.802C38.8653 436.072 40.2239 433.012 42.9477 431.966L46.3999 430.641Z" fill="white" fill-opacity="0.1"/>
<path d="M331.826 189.514C334.55 188.469 337.607 189.834 338.655 192.564L342.45 202.449C343.497 205.178 342.139 208.239 339.415 209.284L335.963 210.609C333.239 211.655 330.182 210.29 329.134 207.56L325.339 197.675C324.292 194.945 325.65 191.885 328.374 190.839L331.826 189.514Z" fill="white" fill-opacity="0.1"/>
<path d="M311.113 197.465C313.836 196.42 316.894 197.785 317.942 200.515L321.736 210.4C322.784 213.129 321.425 216.19 318.702 217.235L315.249 218.56C312.526 219.606 309.468 218.241 308.42 215.511L304.626 205.626C303.578 202.897 304.937 199.836 307.66 198.791L311.113 197.465Z" fill="white" fill-opacity="0.1"/>
<path d="M290.399 205.417C293.123 204.371 296.18 205.736 297.228 208.466L301.023 218.351C302.071 221.081 300.712 224.141 297.988 225.186L295.029 226.322C292.305 227.368 289.248 226.003 288.2 223.273L284.406 213.388C283.358 210.658 284.716 207.598 287.44 206.552L290.399 205.417Z" fill="white" fill-opacity="0.1"/>
<path d="M270.179 213.178C272.903 212.133 275.96 213.498 277.008 216.228L280.802 226.113C281.85 228.842 280.492 231.903 277.768 232.948L274.316 234.273C271.592 235.319 268.534 233.954 267.487 231.224L263.692 221.339C262.644 218.61 264.003 215.549 266.727 214.504L270.179 213.178Z" fill="white" fill-opacity="0.1"/>
<path d="M249.466 221.129C252.189 220.084 255.247 221.449 256.295 224.179L260.089 234.064C261.137 236.793 259.778 239.854 257.054 240.899L253.602 242.225C250.879 243.27 247.821 241.905 246.773 239.175L242.979 229.29C241.931 226.561 243.29 223.5 246.013 222.455L249.466 221.129Z" fill="white" fill-opacity="0.1"/>
<path d="M228.752 229.081C231.476 228.035 234.533 229.4 235.581 232.13L239.376 242.015C240.423 244.745 239.065 247.805 236.341 248.851L232.889 250.176C230.165 251.221 227.108 249.856 226.06 247.126L222.265 237.241C221.218 234.512 222.576 231.451 225.3 230.406L228.752 229.081Z" fill="white" fill-opacity="0.1"/>
<path d="M208.039 237.032C210.763 235.986 213.82 237.351 214.868 240.081L218.662 249.966C219.71 252.696 218.351 255.756 215.628 256.802L212.669 257.938C209.945 258.983 206.887 257.618 205.84 254.888L202.045 245.003C200.997 242.274 202.356 239.213 205.08 238.168L208.039 237.032Z" fill="white" fill-opacity="0.1"/>
<path d="M187.818 244.794C190.542 243.748 193.6 245.113 194.648 247.843L198.442 257.728C199.49 260.458 198.131 263.518 195.407 264.564L191.955 265.889C189.231 266.934 186.174 265.569 185.126 262.839L181.332 252.954C180.284 250.225 181.642 247.164 184.366 246.119L187.818 244.794Z" fill="white" fill-opacity="0.1"/>
<path d="M167.105 252.745C169.829 251.699 172.886 253.064 173.934 255.794L177.728 265.679C178.776 268.409 177.418 271.469 174.694 272.515L171.242 273.84C168.518 274.885 165.461 273.52 164.413 270.79L160.618 260.905C159.571 258.176 160.929 255.115 163.653 254.07L167.105 252.745Z" fill="white" fill-opacity="0.1"/>
<path d="M146.392 260.696C149.115 259.65 152.173 261.016 153.221 263.745L157.015 273.63C158.063 276.36 156.704 279.42 153.981 280.466L150.528 281.791C147.804 282.837 144.747 281.471 143.699 278.742L139.905 268.857C138.857 266.127 140.216 263.067 142.939 262.021L146.392 260.696Z" fill="white" fill-opacity="0.1"/>
<path d="M125.678 268.647C128.402 267.601 131.459 268.967 132.507 271.696L136.302 281.581C137.35 284.311 135.991 287.371 133.267 288.417L129.815 289.742C127.091 290.788 124.034 289.422 122.986 286.693L119.191 276.808C118.144 274.078 119.502 271.018 122.226 269.972L125.678 268.647Z" fill="white" fill-opacity="0.1"/>
<path d="M104.965 276.598C107.688 275.553 110.746 276.918 111.794 279.647L115.588 289.532C116.636 292.262 115.277 295.323 112.554 296.368L109.595 297.504C106.871 298.55 103.813 297.184 102.766 294.455L98.971 284.57C97.9232 281.84 99.2819 278.78 102.006 277.734L104.965 276.598Z" fill="white" fill-opacity="0.1"/>
<path d="M84.7445 284.36C87.4682 283.314 90.5257 284.68 91.5735 287.409L95.368 297.294C96.4158 300.024 95.0572 303.084 92.3335 304.13L88.8811 305.455C86.1574 306.501 83.1 305.135 82.0522 302.406L78.2577 292.521C77.2099 289.791 78.5685 286.731 81.2922 285.685L84.7445 284.36Z" fill="white" fill-opacity="0.1"/>
<path d="M64.0309 292.311C66.7548 291.266 69.8122 292.631 70.86 295.36L74.6545 305.245C75.7023 307.975 74.3437 311.036 71.6199 312.081L68.1678 313.406C65.4441 314.452 62.3866 313.087 61.3388 310.357L57.5443 300.472C56.4965 297.742 57.8551 294.682 60.5788 293.636L64.0309 292.311Z" fill="white" fill-opacity="0.1"/>
<path d="M43.3176 300.262C46.0413 299.217 49.0987 300.582 50.1466 303.312L53.941 313.197C54.9889 315.926 53.6303 318.987 50.9066 320.032L47.4544 321.357C44.7306 322.403 41.673 321.038 40.6252 318.308L36.8307 308.423C35.7829 305.693 37.1416 302.633 39.8654 301.587L43.3176 300.262Z" fill="white" fill-opacity="0.1"/>
<path d="M22.6042 308.213C25.3279 307.168 28.3854 308.533 29.4332 311.263L33.2277 321.148C34.2755 323.877 32.9169 326.938 30.1932 327.983L27.234 329.119C24.5103 330.165 21.4529 328.8 20.4051 326.07L16.6106 316.185C15.5628 313.455 16.9214 310.395 19.6451 309.349L22.6042 308.213Z" fill="white" fill-opacity="0.1"/>
<path d="M2.38387 315.975C5.10757 314.93 8.16502 316.295 9.21284 319.025L13.0073 328.91C14.0551 331.639 12.6965 334.7 9.97284 335.745L6.52069 337.07C3.79687 338.116 0.739424 336.751 -0.308394 334.021L-4.10288 324.136C-5.1507 321.406 -3.7921 318.346 -1.06828 317.3L2.38387 315.975Z" fill="white" fill-opacity="0.1"/>
<path d="M378.877 297.344C379.401 298.709 378.721 300.239 377.359 300.762L215.597 362.857C214.235 363.379 212.707 362.697 212.183 361.332L179.55 276.321C179.026 274.956 179.706 273.426 181.068 272.903L342.829 210.809C344.191 210.286 345.72 210.969 346.244 212.334L378.877 297.344Z" fill="white" fill-opacity="0.1"/>
<path d="M202.812 364.929C203.336 366.294 202.657 367.824 201.295 368.347L39.5332 430.441C38.1712 430.964 36.6426 430.282 36.1187 428.917L3.48609 343.906C2.96218 342.541 3.64142 341.011 5.00339 340.488L166.765 278.394C168.127 277.871 169.656 278.553 170.18 279.918L202.812 364.929Z" fill="white" fill-opacity="0.1"/>
<path d="M728.069 168.973C730.792 167.927 733.85 169.293 734.897 172.022L738.692 181.907C739.74 184.637 738.381 187.697 735.657 188.743L732.205 190.068C729.482 191.113 726.424 189.748 725.376 187.019L721.582 177.134C720.534 174.404 721.893 171.344 724.616 170.298L728.069 168.973Z" fill="white" fill-opacity="0.1"/>
<path d="M707.355 176.924C710.079 175.878 713.136 177.244 714.184 179.973L717.979 189.858C719.026 192.588 717.668 195.648 714.944 196.694L711.492 198.019C708.768 199.065 705.711 197.699 704.663 194.97L700.868 185.085C699.82 182.355 701.179 179.295 703.903 178.249L707.355 176.924Z" fill="white" fill-opacity="0.1"/>
<path d="M686.642 184.875C689.365 183.83 692.423 185.195 693.471 187.924L697.265 197.809C698.313 200.539 696.954 203.6 694.231 204.645L691.271 205.781C688.548 206.826 685.49 205.461 684.443 202.732L680.648 192.847C679.6 190.117 680.959 187.057 683.683 186.011L686.642 184.875Z" fill="white" fill-opacity="0.1"/>
<path d="M666.421 192.637C669.145 191.591 672.203 192.957 673.25 195.686L677.045 205.571C678.093 208.301 676.734 211.361 674.01 212.407L670.558 213.732C667.834 214.778 664.777 213.412 663.729 210.683L659.935 200.798C658.887 198.068 660.245 195.008 662.969 193.962L666.421 192.637Z" fill="white" fill-opacity="0.1"/>
<path d="M645.708 200.588C648.432 199.543 651.489 200.908 652.537 203.637L656.331 213.522C657.379 216.252 656.021 219.312 653.297 220.358L649.845 221.683C647.121 222.729 644.064 221.364 643.016 218.634L639.221 208.749C638.173 206.019 639.532 202.959 642.256 201.913L645.708 200.588Z" fill="white" fill-opacity="0.1"/>
<path d="M624.994 208.539C627.718 207.494 630.776 208.859 631.824 211.589L635.618 221.474C636.666 224.203 635.307 227.264 632.583 228.309L629.131 229.634C626.407 230.68 623.35 229.315 622.302 226.585L618.508 216.7C617.46 213.97 618.819 210.91 621.542 209.864L624.994 208.539Z" fill="white" fill-opacity="0.1"/>
<path d="M604.281 216.49C607.005 215.445 610.062 216.81 611.11 219.54L614.905 229.425C615.952 232.154 614.594 235.215 611.87 236.26L608.911 237.396C606.187 238.442 603.13 237.076 602.082 234.347L598.287 224.462C597.24 221.732 598.598 218.672 601.322 217.626L604.281 216.49Z" fill="white" fill-opacity="0.1"/>
<path d="M584.061 224.252C586.785 223.207 589.842 224.572 590.89 227.302L594.684 237.187C595.732 239.916 594.374 242.977 591.65 244.022L588.198 245.347C585.474 246.393 582.416 245.028 581.369 242.298L577.574 232.413C576.526 229.683 577.885 226.623 580.609 225.577L584.061 224.252Z" fill="white" fill-opacity="0.1"/>
<path d="M563.347 232.203C566.071 231.158 569.129 232.523 570.176 235.253L573.971 245.138C575.019 247.867 573.66 250.928 570.936 251.973L567.484 253.298C564.76 254.344 561.703 252.979 560.655 250.249L556.861 240.364C555.813 237.634 557.171 234.574 559.895 233.529L563.347 232.203Z" fill="white" fill-opacity="0.1"/>
<path d="M542.634 240.154C545.358 239.109 548.415 240.474 549.463 243.204L553.258 253.089C554.305 255.818 552.947 258.879 550.223 259.924L546.771 261.25C544.047 262.295 540.989 260.93 539.942 258.2L536.147 248.315C535.099 245.586 536.458 242.525 539.182 241.48L542.634 240.154Z" fill="white" fill-opacity="0.1"/>
<path d="M521.921 248.106C524.644 247.06 527.702 248.425 528.75 251.155L532.544 261.04C533.592 263.77 532.233 266.83 529.509 267.876L526.057 269.201C523.334 270.246 520.276 268.881 519.228 266.151L515.434 256.266C514.386 253.537 515.745 250.476 518.468 249.431L521.921 248.106Z" fill="white" fill-opacity="0.1"/>
<path d="M501.207 256.057C503.931 255.011 506.988 256.376 508.036 259.106L511.831 268.991C512.878 271.721 511.52 274.781 508.796 275.827L505.837 276.963C503.113 278.008 500.056 276.643 499.008 273.913L495.214 264.028C494.166 261.299 495.524 258.238 498.248 257.193L501.207 256.057Z" fill="white" fill-opacity="0.1"/>
<path d="M480.987 263.819C483.711 262.773 486.768 264.138 487.816 266.868L491.61 276.753C492.658 279.483 491.3 282.543 488.576 283.589L485.124 284.914C482.4 285.959 479.342 284.594 478.295 281.864L474.5 271.979C473.452 269.25 474.811 266.189 477.535 265.144L480.987 263.819Z" fill="white" fill-opacity="0.1"/>
<path d="M460.273 271.77C462.997 270.724 466.055 272.089 467.102 274.819L470.897 284.704C471.945 287.434 470.586 290.494 467.862 291.54L464.41 292.865C461.686 293.91 458.629 292.545 457.581 289.815L453.787 279.931C452.739 277.201 454.097 274.14 456.821 273.095L460.273 271.77Z" fill="white" fill-opacity="0.1"/>
<path d="M439.56 279.721C442.284 278.675 445.341 280.041 446.389 282.77L450.183 292.655C451.231 295.385 449.873 298.445 447.149 299.491L443.697 300.816C440.973 301.862 437.916 300.496 436.868 297.767L433.073 287.882C432.025 285.152 433.384 282.092 436.108 281.046L439.56 279.721Z" fill="white" fill-opacity="0.1"/>
<path d="M418.847 287.672C421.57 286.626 424.628 287.992 425.676 290.721L429.47 300.606C430.518 303.336 429.159 306.396 426.436 307.442L423.476 308.578C420.753 309.623 417.695 308.258 416.647 305.528L412.853 295.643C411.805 292.914 413.164 289.853 415.887 288.808L418.847 287.672Z" fill="white" fill-opacity="0.1"/>
<path d="M398.626 295.434C401.35 294.388 404.407 295.754 405.455 298.483L409.25 308.368C410.298 311.098 408.939 314.158 406.215 315.204L402.763 316.529C400.039 317.575 396.982 316.209 395.934 313.48L392.14 303.595C391.092 300.865 392.45 297.805 395.174 296.759L398.626 295.434Z" fill="white" fill-opacity="0.1"/>
<path d="M684.052 54.3072C686.776 53.2616 689.834 54.6269 690.881 57.3566L694.676 67.2415C695.724 69.9712 694.365 73.0316 691.641 74.0771L688.189 75.4023C685.465 76.4479 682.408 75.0826 681.36 72.353L677.566 62.468C676.518 59.7383 677.877 56.6779 680.6 55.6324L684.052 54.3072Z" fill="white" fill-opacity="0.1"/>
<path d="M663.339 62.2583C666.063 61.2128 669.12 62.578 670.168 65.3077L673.963 75.1927C675.01 77.9223 673.652 80.9827 670.928 82.0283L667.476 83.3535C664.752 84.399 661.695 83.0338 660.647 80.3041L656.852 70.4191C655.804 67.6895 657.163 64.6291 659.887 63.5835L663.339 62.2583Z" fill="white" fill-opacity="0.1"/>
<path d="M642.626 70.2095C645.349 69.164 648.407 70.5292 649.455 73.2588L653.249 83.1438C654.297 85.8735 652.938 88.9339 650.215 89.9794L647.255 91.1153C644.532 92.1608 641.474 90.7956 640.427 88.0659L636.632 78.181C635.584 75.4513 636.943 72.3909 639.667 71.3454L642.626 70.2095Z" fill="white" fill-opacity="0.1"/>
<path d="M622.405 77.9713C625.129 76.9258 628.187 78.291 629.234 81.0207L633.029 90.9056C634.077 93.6353 632.718 96.6957 629.994 97.7412L626.542 99.0664C623.818 100.112 620.761 98.7467 619.713 96.0171L615.919 86.1321C614.871 83.4024 616.229 80.342 618.953 79.2965L622.405 77.9713Z" fill="white" fill-opacity="0.1"/>
<path d="M601.692 85.9224C604.416 84.8769 607.473 86.2422 608.521 88.9718L612.315 98.8568C613.363 101.586 612.005 104.647 609.281 105.692L605.829 107.018C603.105 108.063 600.047 106.698 599 103.968L595.205 94.0832C594.157 91.3536 595.516 88.2932 598.24 87.2476L601.692 85.9224Z" fill="white" fill-opacity="0.1"/>
<path d="M580.978 93.8736C583.702 92.828 586.76 94.1933 587.808 96.9229L591.602 106.808C592.65 109.538 591.291 112.598 588.567 113.644L585.115 114.969C582.391 116.014 579.334 114.649 578.286 111.919L574.492 102.034C573.444 99.3047 574.803 96.2443 577.526 95.1988L580.978 93.8736Z" fill="white" fill-opacity="0.1"/>
<path d="M560.265 101.825C562.989 100.779 566.046 102.144 567.094 104.874L570.889 114.759C571.936 117.489 570.578 120.549 567.854 121.595L564.895 122.731C562.171 123.776 559.114 122.411 558.066 119.681L554.271 109.796C553.224 107.067 554.582 104.006 557.306 102.961L560.265 101.825Z" fill="white" fill-opacity="0.1"/>
<path d="M540.045 109.587C542.769 108.541 545.826 109.906 546.874 112.636L550.668 122.521C551.716 125.251 550.358 128.311 547.634 129.356L544.182 130.682C541.458 131.727 538.4 130.362 537.353 127.632L533.558 117.747C532.51 115.018 533.869 111.957 536.593 110.912L540.045 109.587Z" fill="white" fill-opacity="0.1"/>
<path d="M519.331 117.538C522.055 116.492 525.113 117.857 526.16 120.587L529.955 130.472C531.003 133.202 529.644 136.262 526.92 137.308L523.468 138.633C520.744 139.678 517.687 138.313 516.639 135.583L512.845 125.699C511.797 122.969 513.155 119.908 515.879 118.863L519.331 117.538Z" fill="white" fill-opacity="0.1"/>
<path d="M498.618 125.489C501.342 124.443 504.399 125.809 505.447 128.538L509.241 138.423C510.289 141.153 508.931 144.213 506.207 145.259L502.755 146.584C500.031 147.629 496.973 146.264 495.926 143.535L492.131 133.65C491.083 130.92 492.442 127.86 495.166 126.814L498.618 125.489Z" fill="white" fill-opacity="0.1"/>
<path d="M477.905 133.44C480.628 132.394 483.686 133.76 484.734 136.489L488.528 146.374C489.576 149.104 488.217 152.164 485.493 153.21L482.041 154.535C479.318 155.581 476.26 154.215 475.212 151.486L471.418 141.601C470.37 138.871 471.729 135.811 474.452 134.765L477.905 133.44Z" fill="white" fill-opacity="0.1"/>
<path d="M457.191 141.391C459.915 140.346 462.972 141.711 464.02 144.44L467.815 154.325C468.862 157.055 467.504 160.116 464.78 161.161L461.821 162.297C459.097 163.342 456.04 161.977 454.992 159.248L451.198 149.363C450.15 146.633 451.508 143.573 454.232 142.527L457.191 141.391Z" fill="white" fill-opacity="0.1"/>
<path d="M436.971 149.153C439.695 148.107 442.752 149.473 443.8 152.202L447.594 162.087C448.642 164.817 447.284 167.877 444.56 168.923L441.108 170.248C438.384 171.294 435.326 169.928 434.279 167.199L430.484 157.314C429.436 154.584 430.795 151.524 433.519 150.478L436.971 149.153Z" fill="white" fill-opacity="0.1"/>
<path d="M416.257 157.104C418.981 156.059 422.039 157.424 423.086 160.153L426.881 170.038C427.929 172.768 426.57 175.828 423.846 176.874L420.394 178.199C417.67 179.245 414.613 177.88 413.565 175.15L409.771 165.265C408.723 162.535 410.081 159.475 412.805 158.429L416.257 157.104Z" fill="white" fill-opacity="0.1"/>
<path d="M395.544 165.055C398.268 164.01 401.325 165.375 402.373 168.105L406.167 177.99C407.215 180.719 405.857 183.78 403.133 184.825L399.681 186.15C396.957 187.196 393.9 185.831 392.852 183.101L389.057 173.216C388.009 170.486 389.368 167.426 392.092 166.38L395.544 165.055Z" fill="white" fill-opacity="0.1"/>
<path d="M374.831 173.006C377.554 171.961 380.612 173.326 381.66 176.056L385.454 185.941C386.502 188.67 385.143 191.731 382.42 192.776L379.46 193.912C376.737 194.958 373.679 193.592 372.631 190.863L368.837 180.978C367.789 178.248 369.148 175.188 371.871 174.142L374.831 173.006Z" fill="white" fill-opacity="0.1"/>
<path d="M354.61 180.768C357.334 179.723 360.391 181.088 361.439 183.818L365.234 193.703C366.282 196.432 364.923 199.493 362.199 200.538L358.747 201.863C356.023 202.909 352.966 201.544 351.918 198.814L348.124 188.929C347.076 186.199 348.434 183.139 351.158 182.093L354.61 180.768Z" fill="white" fill-opacity="0.1"/>
<path d="M731.103 162.137C731.627 163.502 730.948 165.032 729.586 165.555L567.824 227.65C566.462 228.172 564.933 227.49 564.409 226.125L531.777 141.114C531.253 139.749 531.932 138.219 533.294 137.696L695.056 75.6018C696.418 75.079 697.947 75.7617 698.47 77.1265L731.103 162.137Z" fill="white" fill-opacity="0.1"/>
<path d="M555.039 229.722C555.563 231.087 554.883 232.617 553.522 233.14L391.76 295.234C390.398 295.757 388.869 295.074 388.345 293.71L355.713 208.699C355.189 207.334 355.868 205.804 357.23 205.281L518.992 143.187C520.354 142.664 521.882 143.346 522.406 144.711L555.039 229.722Z" fill="white" fill-opacity="0.1"/>
</svg>
