<svg width="46" height="52" viewBox="0 0 46 52" fill="none" xmlns="http://www.w3.org/2000/svg">
<path d="M20.8787 51.1213C22.0503 52.2929 23.9497 52.2929 25.1213 51.1213L44.2132 32.0294C45.3848 30.8579 45.3848 28.9584 44.2132 27.7868C43.0416 26.6152 41.1421 26.6152 39.9706 27.7868L23 44.7574L6.02944 27.7868C4.85786 26.6152 2.95837 26.6152 1.7868 27.7868C0.615222 28.9584 0.615222 30.8579 1.7868 32.0294L20.8787 51.1213ZM26 3C26 1.34315 24.6569 -7.24234e-08 23 0C21.3431 7.24234e-08 20 1.34315 20 3L26 3ZM26 49L26 3L20 3L20 49L26 49Z" fill="#FFFFF0"/>
</svg>
