<svg width="1041" height="1042" viewBox="0 0 1041 1042" fill="none" xmlns="http://www.w3.org/2000/svg">
<path d="M1020.79 474.691L566.533 20.4628C560.312 14.2399 552.926 9.3034 544.797 5.93544C536.668 2.56747 527.955 0.833984 519.155 0.833984C510.356 0.833984 501.643 2.56747 493.514 5.93544C485.385 9.3034 477.998 14.2399 471.777 20.4628L377.451 114.799L497.109 234.447C511.175 229.664 526.298 228.915 540.767 232.286C555.236 235.657 568.472 243.012 578.975 253.519C589.534 264.093 596.906 277.423 600.25 291.987C603.593 306.552 602.772 321.763 597.881 335.883L713.184 451.205C741.084 441.596 773.281 447.816 795.557 470.131C802.962 477.532 808.837 486.32 812.846 495.993C816.854 505.665 818.917 516.033 818.917 526.503C818.917 536.973 816.854 547.341 812.846 557.013C808.837 566.686 802.962 575.474 795.557 582.875C782.527 595.917 765.38 604.04 747.035 605.862C728.69 607.684 710.281 603.093 694.94 592.869C679.599 582.645 668.276 567.421 662.897 549.787C657.519 532.154 658.417 513.202 665.439 496.156L557.9 388.617L557.891 671.625C565.687 675.48 572.807 680.572 578.975 686.703C586.38 694.107 592.254 702.896 596.262 712.571C600.27 722.245 602.333 732.613 602.333 743.085C602.333 753.556 600.27 763.925 596.262 773.599C592.254 783.273 586.38 792.063 578.975 799.467C547.822 830.619 497.334 830.619 466.23 799.467C456.938 790.181 450.084 778.744 446.278 766.171C442.472 753.598 441.832 740.279 444.414 727.399C446.996 714.519 452.721 702.477 461.079 692.342C469.438 682.208 480.171 674.297 492.324 669.311V383.666C482.547 379.673 473.674 373.755 466.23 366.264C442.637 342.699 436.963 308.08 449.053 279.105L331.104 161.137L19.6387 472.582C13.4148 478.806 8.47773 486.194 5.10936 494.326C1.741 502.457 0.00732422 511.173 0.00732422 519.975C0.00732422 528.776 1.741 537.492 5.10936 545.623C8.47773 553.755 13.4148 561.144 19.6387 567.367L473.897 1021.61C486.463 1034.17 503.505 1041.23 521.274 1041.23C539.044 1041.23 556.086 1034.17 568.652 1021.61L1020.79 569.486C1033.36 556.913 1040.42 539.865 1040.42 522.089C1040.42 504.313 1033.36 487.265 1020.79 474.691Z" fill="#DE4C36"/>
</svg>
