<svg width="104" height="100" viewBox="0 0 104 100" fill="none" xmlns="http://www.w3.org/2000/svg">
<path d="M49.1468 2.78115C50.0449 0.0172215 53.9551 0.0172221 54.8532 2.78115L65.0218 34.077C65.4234 35.3131 66.5753 36.15 67.875 36.15H100.781C103.688 36.15 104.896 39.8688 102.545 41.577L75.9229 60.9189C74.8714 61.6829 74.4315 63.037 74.8331 64.273L85.0017 95.5689C85.8998 98.3328 82.7363 100.631 80.3852 98.923L53.7634 79.5811C52.7119 78.8171 51.2881 78.8171 50.2366 79.5811L23.6148 98.923C21.2637 100.631 18.1002 98.3328 18.9983 95.5689L29.1669 64.273C29.5685 63.037 29.1286 61.6829 28.0771 60.9189L1.45525 41.577C-0.895892 39.8688 0.312434 36.15 3.2186 36.15H36.125C37.4247 36.15 38.5766 35.3131 38.9782 34.077L49.1468 2.78115Z" fill="#974A29"/>
</svg>
